<?xml version="1.0" standalone="no"?>
<svg width="567.429" height="386.304" viewBox="0 0 567.429 386.304" xmlns="http://www.w3.org/2000/svg" shape-rendering="crispEdges">
<title>
../outputs/linefits/images/svg/27kV.svg
</title>
<desc>
Creator: ROOT Version 6.26/06
CreationDate: Sun May  7 17:16:07 2023</desc>
<defs>
</defs>
<rect x="0.5" y="0" width="566.929" height="385.804" fill="white"/>
<rect x="57.1929" y="38.5804" width="453.543" height="308.643" fill="white"/>
<rect x="57.1929" y="38.5804" width="453.543" height="308.643" fill="none" stroke="black"/>
<rect x="57.1929" y="38.5804" width="453.543" height="308.643" fill="white"/>
<rect x="57.1929" y="38.5804" width="453.543" height="308.643" fill="none" stroke="black"/>
<path d="M57.1929,347.224h 453.543" fill="none" stroke="black"/>
<path d="M86.1953,337.964v 9.2593" fill="none" stroke="black"/>
<path d="M98.1925,342.594v 4.62965" fill="none" stroke="black"/>
<path d="M110.19,342.594v 4.62965" fill="none" stroke="black"/>
<path d="M122.187,342.594v 4.62965" fill="none" stroke="black"/>
<path d="M134.184,342.594v 4.62965" fill="none" stroke="black"/>
<path d="M146.182,337.964v 9.2593" fill="none" stroke="black"/>
<path d="M158.179,342.594v 4.62965" fill="none" stroke="black"/>
<path d="M170.176,342.594v 4.62965" fill="none" stroke="black"/>
<path d="M182.173,342.594v 4.62965" fill="none" stroke="black"/>
<path d="M194.171,342.594v 4.62965" fill="none" stroke="black"/>
<path d="M206.168,337.964v 9.2593" fill="none" stroke="black"/>
<path d="M218.165,342.594v 4.62965" fill="none" stroke="black"/>
<path d="M230.162,342.594v 4.62965" fill="none" stroke="black"/>
<path d="M242.16,342.594v 4.62965" fill="none" stroke="black"/>
<path d="M254.157,342.594v 4.62965" fill="none" stroke="black"/>
<path d="M266.154,337.964v 9.2593" fill="none" stroke="black"/>
<path d="M278.151,342.594v 4.62965" fill="none" stroke="black"/>
<path d="M290.149,342.594v 4.62965" fill="none" stroke="black"/>
<path d="M302.146,342.594v 4.62965" fill="none" stroke="black"/>
<path d="M314.143,342.594v 4.62965" fill="none" stroke="black"/>
<path d="M326.141,337.964v 9.2593" fill="none" stroke="black"/>
<path d="M338.138,342.594v 4.62965" fill="none" stroke="black"/>
<path d="M350.135,342.594v 4.62965" fill="none" stroke="black"/>
<path d="M362.132,342.594v 4.62965" fill="none" stroke="black"/>
<path d="M374.13,342.594v 4.62965" fill="none" stroke="black"/>
<path d="M386.127,337.964v 9.2593" fill="none" stroke="black"/>
<path d="M398.124,342.594v 4.62965" fill="none" stroke="black"/>
<path d="M410.121,342.594v 4.62965" fill="none" stroke="black"/>
<path d="M422.119,342.594v 4.62965" fill="none" stroke="black"/>
<path d="M434.116,342.594v 4.62965" fill="none" stroke="black"/>
<path d="M446.113,337.964v 9.2593" fill="none" stroke="black"/>
<path d="M458.11,342.594v 4.62965" fill="none" stroke="black"/>
<path d="M470.108,342.594v 4.62965" fill="none" stroke="black"/>
<path d="M482.105,342.594v 4.62965" fill="none" stroke="black"/>
<path d="M494.102,342.594v 4.62965" fill="none" stroke="black"/>
<path d="M506.099,337.964v 9.2593" fill="none" stroke="black"/>
<path d="M86.1953,337.964v 9.2593" fill="none" stroke="black"/>
<path d="M74.198,342.594v 4.62965" fill="none" stroke="black"/>
<path d="M62.2007,342.594v 4.62965" fill="none" stroke="black"/>
<path d="M506.099,337.964v 9.2593" fill="none" stroke="black"/>
<text xml:space="preserve" x="72.7875" y="359.813" fill="black" font-size="12.8882" font-family="Helvetica">0.02</text>
<text xml:space="preserve" x="132.892" y="359.813" fill="black" font-size="12.8882" font-family="Helvetica">0.03</text>
<text xml:space="preserve" x="192.996" y="359.813" fill="black" font-size="12.8882" font-family="Helvetica">0.04</text>
<text xml:space="preserve" x="253.1" y="359.813" fill="black" font-size="12.8882" font-family="Helvetica">0.05</text>
<text xml:space="preserve" x="312.392" y="359.813" fill="black" font-size="12.8882" font-family="Helvetica">0.06</text>
<text xml:space="preserve" x="372.496" y="359.813" fill="black" font-size="12.8882" font-family="Helvetica">0.07</text>
<text xml:space="preserve" x="432.601" y="359.813" fill="black" font-size="12.8882" font-family="Helvetica">0.08</text>
<text xml:space="preserve" x="492.705" y="359.813" fill="black" font-size="12.8882" font-family="Helvetica">0.09</text>
<text xml:space="preserve" x="412.295" y="372.809" fill="black" font-size="12.8882" font-family="Helvetica">Wavelength (nm)</text>
<path d="M57.1929,347.224v -308.643" fill="none" stroke="black"/>
<path d="M70.7992,315.066h -13.6063" fill="none" stroke="black"/>
<path d="M63.9961,306.67h -6.80315" fill="none" stroke="black"/>
<path d="M63.9961,298.274h -6.80315" fill="none" stroke="black"/>
<path d="M63.9961,289.878h -6.80315" fill="none" stroke="black"/>
<path d="M63.9961,281.482h -6.80315" fill="none" stroke="black"/>
<path d="M70.7992,273.086h -13.6063" fill="none" stroke="black"/>
<path d="M63.9961,264.689h -6.80315" fill="none" stroke="black"/>
<path d="M63.9961,256.293h -6.80315" fill="none" stroke="black"/>
<path d="M63.9961,247.897h -6.80315" fill="none" stroke="black"/>
<path d="M63.9961,239.501h -6.80315" fill="none" stroke="black"/>
<path d="M70.7992,231.105h -13.6063" fill="none" stroke="black"/>
<path d="M63.9961,222.709h -6.80315" fill="none" stroke="black"/>
<path d="M63.9961,214.312h -6.80315" fill="none" stroke="black"/>
<path d="M63.9961,205.916h -6.80315" fill="none" stroke="black"/>
<path d="M63.9961,197.52h -6.80315" fill="none" stroke="black"/>
<path d="M70.7992,189.124h -13.6063" fill="none" stroke="black"/>
<path d="M63.9961,180.728h -6.80315" fill="none" stroke="black"/>
<path d="M63.9961,172.331h -6.80315" fill="none" stroke="black"/>
<path d="M63.9961,163.935h -6.80315" fill="none" stroke="black"/>
<path d="M63.9961,155.539h -6.80315" fill="none" stroke="black"/>
<path d="M70.7992,147.143h -13.6063" fill="none" stroke="black"/>
<path d="M63.9961,138.747h -6.80315" fill="none" stroke="black"/>
<path d="M63.9961,130.351h -6.80315" fill="none" stroke="black"/>
<path d="M63.9961,121.954h -6.80315" fill="none" stroke="black"/>
<path d="M63.9961,113.558h -6.80315" fill="none" stroke="black"/>
<path d="M70.7992,105.162h -13.6063" fill="none" stroke="black"/>
<path d="M63.9961,96.7659h -6.80315" fill="none" stroke="black"/>
<path d="M63.9961,88.3697h -6.80315" fill="none" stroke="black"/>
<path d="M63.9961,79.9736h -6.80315" fill="none" stroke="black"/>
<path d="M63.9961,71.5774h -6.80315" fill="none" stroke="black"/>
<path d="M70.7992,63.1812h -13.6063" fill="none" stroke="black"/>
<path d="M70.7992,315.066h -13.6063" fill="none" stroke="black"/>
<path d="M63.9961,323.463h -6.80315" fill="none" stroke="black"/>
<path d="M63.9961,331.859h -6.80315" fill="none" stroke="black"/>
<path d="M63.9961,340.255h -6.80315" fill="none" stroke="black"/>
<path d="M70.7992,63.1812h -13.6063" fill="none" stroke="black"/>
<path d="M63.9961,54.785h -6.80315" fill="none" stroke="black"/>
<path d="M63.9961,46.3889h -6.80315" fill="none" stroke="black"/>
<text xml:space="preserve" x="39.4865" y="319.202" fill="black" font-size="12.8882" font-family="Helvetica">50</text>
<text xml:space="preserve" x="32.9888" y="277.779" fill="black" font-size="12.8882" font-family="Helvetica">100</text>
<text xml:space="preserve" x="32.9888" y="235.544" fill="black" font-size="12.8882" font-family="Helvetica">150</text>
<text xml:space="preserve" x="32.9888" y="193.308" fill="black" font-size="12.8882" font-family="Helvetica">200</text>
<text xml:space="preserve" x="32.9888" y="151.885" fill="black" font-size="12.8882" font-family="Helvetica">250</text>
<text xml:space="preserve" x="32.9888" y="109.65" fill="black" font-size="12.8882" font-family="Helvetica">300</text>
<text xml:space="preserve" x="32.9888" y="67.4142" fill="black" font-size="12.8882" font-family="Helvetica">350</text>
<g transform="rotate(-90,19.9933,108.025)">
<text xml:space="preserve" x="19.9933" y="108.025" fill="black" font-size="12.8882" font-family="Helvetica">Rate (imp/s)</text>
</g>
<path d="M125.912,105.162l 5.83846, 15.9527l 5.83797, 50.377l 5.83746, 57.094l 5.83693, 25.1885l 5.83638, 36.1035l 5.83582, 22.6697l 5.83524, 15.9527l 5.83464, 8.39617l 5.83402, 0.839617l 5.83339, 1.67923h 5.83274l 5.83207, 4.19809l 5.83138,
 -2.51885l 5.83068, 5.0377l 5.82996, -2.51885l 5.82922, 2.51885l 5.82847, -0.839617l 5.82769, 0.839617l 5.8269, -3.35847h 5.8261l 5.82527, -3.35847l 5.82443, -2.51885l 5.82357, -3.35847l 5.82269, -5.0377l 5.8218, 3.35847l 5.82089, -6.71694l 5.81996,
 -2.51885l 5.81901, -5.87732l 5.81805, -5.87732l 5.81707, 2.51885l 5.81607, -5.87732l 5.81505, -6.71694l 5.81402, -3.35847l 5.81297, -11.7546l 5.8119, -5.87732l 5.81081, -4.19809l 5.80971, 5.0377l 5.80859, -17.632l 5.80745, -7.55656l 5.8063, 3.35847l
 5.80513, -20.9904l 5.80394, -19.3112l 5.80273, -24.3489l 5.80151, -33.5847l 5.80027, 7.55656l 5.79901, -18.4716l 5.79773, -83.1221l 5.79644, 41.9809l 5.79513, 126.782l 5.7938, 22.6697l 5.79245, -10.915l 5.79109, 10.915l 5.78971, -4.19809l 5.78831,
 -12.5943l 5.7869, -1.67923l 5.78547, -4.19809l 5.78402, 5.87732l 5.78255, 3.35847l 5.78107, -5.0377l 5.77957, 3.35847l 5.77805, -0.839617l 5.77652, 0.839617l 5.77496, -7.55656l 5.77339, 1.67923l 5.77181, -4.19809l 5.7702, 7.55656l 1.34173,
 -0.976444" fill="none" stroke="#0000ff" stroke-width="4"/>
<g fill="black">
<circle cx="125.912" cy="105.162" r="2.92399"/>
<circle cx="131.75" cy="121.115" r="2.92399"/>
<circle cx="137.588" cy="171.492" r="2.92399"/>
<circle cx="143.425" cy="228.586" r="2.92399"/>
<circle cx="149.262" cy="253.774" r="2.92399"/>
<circle cx="155.099" cy="289.878" r="2.92399"/>
<circle cx="160.935" cy="312.548" r="2.92399"/>
<circle cx="166.77" cy="328.5" r="2.92399"/>
<circle cx="172.604" cy="336.896" r="2.92399"/>
<circle cx="178.439" cy="337.736" r="2.92399"/>
<circle cx="184.272" cy="339.415" r="2.92399"/>
<circle cx="190.105" cy="339.415" r="2.92399"/>
<circle cx="195.937" cy="343.613" r="2.92399"/>
<circle cx="201.768" cy="341.095" r="2.92399"/>
<circle cx="207.599" cy="346.132" r="2.92399"/>
<circle cx="213.429" cy="343.613" r="2.92399"/>
<circle cx="219.258" cy="346.132" r="2.92399"/>
<circle cx="225.086" cy="345.293" r="2.92399"/>
<circle cx="230.914" cy="346.132" r="2.92399"/>
<circle cx="236.741" cy="342.774" r="2.92399"/>
<circle cx="242.567" cy="342.774" r="2.92399"/>
<circle cx="248.392" cy="339.415" r="2.92399"/>
<circle cx="254.217" cy="336.896" r="2.92399"/>
<circle cx="260.04" cy="333.538" r="2.92399"/>
<circle cx="265.863" cy="328.5" r="2.92399"/>
<circle cx="271.685" cy="331.859" r="2.92399"/>
<circle cx="277.506" cy="325.142" r="2.92399"/>
<circle cx="283.326" cy="322.623" r="2.92399"/>
<circle cx="289.145" cy="316.746" r="2.92399"/>
<circle cx="294.963" cy="310.868" r="2.92399"/>
<circle cx="300.78" cy="313.387" r="2.92399"/>
<circle cx="306.596" cy="307.51" r="2.92399"/>
<circle cx="312.411" cy="300.793" r="2.92399"/>
<circle cx="318.225" cy="297.434" r="2.92399"/>
<circle cx="324.038" cy="285.68" r="2.92399"/>
<circle cx="329.85" cy="279.803" r="2.92399"/>
<circle cx="335.661" cy="275.604" r="2.92399"/>
<circle cx="341.47" cy="280.642" r="2.92399"/>
<circle cx="347.279" cy="263.01" r="2.92399"/>
<circle cx="353.086" cy="255.454" r="2.92399"/>
<circle cx="358.893" cy="258.812" r="2.92399"/>
<circle cx="364.698" cy="237.822" r="2.92399"/>
<circle cx="370.502" cy="218.51" r="2.92399"/>
<circle cx="376.305" cy="194.162" r="2.92399"/>
<circle cx="382.106" cy="160.577" r="2.92399"/>
<circle cx="387.906" cy="168.133" r="2.92399"/>
<circle cx="393.705" cy="149.662" r="2.92399"/>
<circle cx="399.503" cy="66.5397" r="2.92399"/>
<circle cx="405.299" cy="108.521" r="2.92399"/>
<circle cx="411.095" cy="235.303" r="2.92399"/>
<circle cx="416.888" cy="257.972" r="2.92399"/>
<circle cx="422.681" cy="247.057" r="2.92399"/>
<circle cx="428.472" cy="257.972" r="2.92399"/>
<circle cx="434.262" cy="253.774" r="2.92399"/>
<circle cx="440.05" cy="241.18" r="2.92399"/>
<circle cx="445.837" cy="239.501" r="2.92399"/>
<circle cx="451.622" cy="235.303" r="2.92399"/>
<circle cx="457.406" cy="241.18" r="2.92399"/>
<circle cx="463.189" cy="244.539" r="2.92399"/>
<circle cx="468.97" cy="239.501" r="2.92399"/>
<circle cx="474.75" cy="242.859" r="2.92399"/>
<circle cx="480.528" cy="242.02" r="2.92399"/>
<circle cx="486.304" cy="242.859" r="2.92399"/>
<circle cx="492.079" cy="235.303" r="2.92399"/>
<circle cx="497.852" cy="236.982" r="2.92399"/>
<circle cx="503.624" cy="232.784" r="2.92399"/>
<circle cx="509.395" cy="240.34" r="2.92399"/>
</g>
<path d="M125.912,105.162h -3.34533e-07" fill="none" stroke="#0000ff"/>
<path d="M125.912,106.787v -3.24888" fill="none" stroke="#0000ff"/>
<path d="M125.912,105.162h 3.34533e-07" fill="none" stroke="#0000ff"/>
<path d="M125.912,106.787v -3.24888" fill="none" stroke="#0000ff"/>
<path d="M125.912,105.162v -6.50365" fill="none" stroke="#0000ff"/>
<path d="M124.287,98.6584h 3.24888" fill="none" stroke="#0000ff"/>
<path d="M125.912,105.162v 6.50365" fill="none" stroke="#0000ff"/>
<path d="M124.287,111.666h 3.24888" fill="none" stroke="#0000ff"/>
<path d="M131.75,121.115h -3.34505e-07" fill="none" stroke="#0000ff"/>
<path d="M131.75,122.739v -3.24888" fill="none" stroke="#0000ff"/>
<path d="M131.75,121.115h 3.34505e-07" fill="none" stroke="#0000ff"/>
<path d="M131.75,122.739v -3.24888" fill="none" stroke="#0000ff"/>
<path d="M131.75,121.115v -6.29433" fill="none" stroke="#0000ff"/>
<path d="M130.126,114.82h 3.24888" fill="none" stroke="#0000ff"/>
<path d="M131.75,121.115v 6.29433" fill="none" stroke="#0000ff"/>
<path d="M130.126,127.409h 3.24888" fill="none" stroke="#0000ff"/>
<path d="M137.588,171.492h -3.34477e-07" fill="none" stroke="#0000ff"/>
<path d="M137.588,173.116v -3.24888" fill="none" stroke="#0000ff"/>
<path d="M137.588,171.492h 3.34476e-07" fill="none" stroke="#0000ff"/>
<path d="M137.588,173.116v -3.24888" fill="none" stroke="#0000ff"/>
<path d="M137.588,171.492v -5.58204" fill="none" stroke="#0000ff"/>
<path d="M135.964,165.91h 3.24888" fill="none" stroke="#0000ff"/>
<path d="M137.588,171.492v 5.58204" fill="none" stroke="#0000ff"/>
<path d="M135.964,177.074h 3.24888" fill="none" stroke="#0000ff"/>
<path d="M143.425,228.586h -3.34447e-07" fill="none" stroke="#0000ff"/>
<path d="M143.425,230.21v -3.24888" fill="none" stroke="#0000ff"/>
<path d="M143.425,228.586h 3.34447e-07" fill="none" stroke="#0000ff"/>
<path d="M143.425,230.21v -3.24888" fill="none" stroke="#0000ff"/>
<path d="M143.425,228.586v -4.64453" fill="none" stroke="#0000ff"/>
<path d="M141.801,223.941h 3.24888" fill="none" stroke="#0000ff"/>
<path d="M143.425,228.586v 4.64453" fill="none" stroke="#0000ff"/>
<path d="M141.801,233.23h 3.24888" fill="none" stroke="#0000ff"/>
<path d="M149.262,253.774h -3.34416e-07" fill="none" stroke="#0000ff"/>
<path d="M149.262,255.399v -3.24888" fill="none" stroke="#0000ff"/>
<path d="M149.262,253.774h 3.34416e-07" fill="none" stroke="#0000ff"/>
<path d="M149.262,255.399v -3.24888" fill="none" stroke="#0000ff"/>
<path d="M149.262,253.774v -4.16437" fill="none" stroke="#0000ff"/>
<path d="M147.638,249.61h 3.24888" fill="none" stroke="#0000ff"/>
<path d="M149.262,253.774v 4.16437" fill="none" stroke="#0000ff"/>
<path d="M147.638,257.939h 3.24888" fill="none" stroke="#0000ff"/>
<path d="M155.099,289.878h -3.34384e-07" fill="none" stroke="#0000ff"/>
<path d="M155.099,291.502v -3.24888" fill="none" stroke="#0000ff"/>
<path d="M155.099,289.878h 3.34384e-07" fill="none" stroke="#0000ff"/>
<path d="M155.099,291.502v -3.24888" fill="none" stroke="#0000ff"/>
<path d="M155.099,289.878v -3.35847" fill="none" stroke="#0000ff"/>
<path d="M153.474,286.519h 3.24888" fill="none" stroke="#0000ff"/>
<path d="M155.099,289.878v 3.35847" fill="none" stroke="#0000ff"/>
<path d="M153.474,293.236h 3.24888" fill="none" stroke="#0000ff"/>
<path d="M160.935,312.548h -3.34351e-07" fill="none" stroke="#0000ff"/>
<path d="M160.935,314.172v -3.24888" fill="none" stroke="#0000ff"/>
<path d="M160.935,312.548h 3.34351e-07" fill="none" stroke="#0000ff"/>
<path d="M160.935,314.172v -3.24888" fill="none" stroke="#0000ff"/>
<path d="M160.935,312.548v -2.7336" fill="none" stroke="#0000ff"/>
<path d="M159.31,309.814h 3.24888" fill="none" stroke="#0000ff"/>
<path d="M160.935,312.548v 2.7336" fill="none" stroke="#0000ff"/>
<path d="M159.31,315.281h 3.24888" fill="none" stroke="#0000ff"/>
<path d="M166.77,328.5h -3.34317e-07" fill="none" stroke="#0000ff"/>
<path d="M166.77,330.125v -3.24888" fill="none" stroke="#0000ff"/>
<path d="M166.77,328.5h 3.34317e-07" fill="none" stroke="#0000ff"/>
<path d="M166.77,330.125v -3.24888" fill="none" stroke="#0000ff"/>
<path d="M166.77,328.5v -2.18945" fill="none" stroke="#0000ff"/>
<path d="M165.145,326.311h 3.24888" fill="none" stroke="#0000ff"/>
<path d="M166.77,328.5v 2.18945" fill="none" stroke="#0000ff"/>
<path d="M165.145,330.69h 3.24888" fill="none" stroke="#0000ff"/>
<path d="M172.604,336.896h -3.34283e-07" fill="none" stroke="#0000ff"/>
<path d="M172.604,338.521v -3.24888" fill="none" stroke="#0000ff"/>
<path d="M172.604,336.896h 3.34283e-07" fill="none" stroke="#0000ff"/>
<path d="M172.604,338.521v -3.24888" fill="none" stroke="#0000ff"/>
<path d="M172.604,336.896v -1.83951" fill="none" stroke="#0000ff"/>
<path d="M170.98,335.057h 3.24888" fill="none" stroke="#0000ff"/>
<path d="M172.604,336.896v 1.83951" fill="none" stroke="#0000ff"/>
<path d="M170.98,338.736h 3.24888" fill="none" stroke="#0000ff"/>
<path d="M178.439,337.736h -3.34247e-07" fill="none" stroke="#0000ff"/>
<path d="M178.439,339.361v -3.24888" fill="none" stroke="#0000ff"/>
<path d="M178.439,337.736h 3.34247e-07" fill="none" stroke="#0000ff"/>
<path d="M178.439,339.361v -3.24888" fill="none" stroke="#0000ff"/>
<path d="M178.439,337.736v -1.80078" fill="none" stroke="#0000ff"/>
<path d="M176.814,335.935h 3.24888" fill="none" stroke="#0000ff"/>
<path d="M178.439,337.736v 1.80078" fill="none" stroke="#0000ff"/>
<path d="M176.814,339.537h 3.24888" fill="none" stroke="#0000ff"/>
<path d="M184.272,339.415h -3.3421e-07" fill="none" stroke="#0000ff"/>
<path d="M184.272,341.04v -3.24888" fill="none" stroke="#0000ff"/>
<path d="M184.272,339.415h 3.3421e-07" fill="none" stroke="#0000ff"/>
<path d="M184.272,341.04v -3.24888" fill="none" stroke="#0000ff"/>
<path d="M184.272,339.415v -1.7207" fill="none" stroke="#0000ff"/>
<path d="M182.647,337.695h 3.24888" fill="none" stroke="#0000ff"/>
<path d="M184.272,339.415v 1.7207" fill="none" stroke="#0000ff"/>
<path d="M182.647,341.136h 3.24888" fill="none" stroke="#0000ff"/>
<path d="M190.105,339.415h -3.34172e-07" fill="none" stroke="#0000ff"/>
<path d="M190.105,341.04v -3.24888" fill="none" stroke="#0000ff"/>
<path d="M190.105,339.415h 3.34172e-07" fill="none" stroke="#0000ff"/>
<path d="M190.105,341.04v -3.24888" fill="none" stroke="#0000ff"/>
<path d="M190.105,339.415v -1.7207" fill="none" stroke="#0000ff"/>
<path d="M188.48,337.695h 3.24888" fill="none" stroke="#0000ff"/>
<path d="M190.105,339.415v 1.7207" fill="none" stroke="#0000ff"/>
<path d="M188.48,341.136h 3.24888" fill="none" stroke="#0000ff"/>
<path d="M195.937,343.613h -3.34133e-07" fill="none" stroke="#0000ff"/>
<path d="M195.937,345.238v -3.24888" fill="none" stroke="#0000ff"/>
<path d="M195.937,343.613h 3.34134e-07" fill="none" stroke="#0000ff"/>
<path d="M195.937,345.238v -3.24888" fill="none" stroke="#0000ff"/>
<path d="M195.937,343.613v -1.50195" fill="none" stroke="#0000ff"/>
<path d="M194.312,342.111h 3.24888" fill="none" stroke="#0000ff"/>
<path d="M195.937,343.613v 1.50195" fill="none" stroke="#0000ff"/>
<path d="M194.312,345.115h 3.24888" fill="none" stroke="#0000ff"/>
<path d="M201.768,341.095h -3.34094e-07" fill="none" stroke="#0000ff"/>
<path d="M201.768,342.719v -3.24888" fill="none" stroke="#0000ff"/>
<path d="M201.768,341.095h 3.34094e-07" fill="none" stroke="#0000ff"/>
<path d="M201.768,342.719v -3.24888" fill="none" stroke="#0000ff"/>
<path d="M201.768,341.095v -1.63672" fill="none" stroke="#0000ff"/>
<path d="M200.144,339.458h 3.24888" fill="none" stroke="#0000ff"/>
<path d="M201.768,341.095v 1.63672" fill="none" stroke="#0000ff"/>
<path d="M200.144,342.731h 3.24888" fill="none" stroke="#0000ff"/>
<path d="M207.599,346.132h -3.34053e-07" fill="none" stroke="#0000ff"/>
<path d="M207.599,347.224v -2.71594" fill="none" stroke="#0000ff"/>
<path d="M207.599,346.132h 3.34053e-07" fill="none" stroke="#0000ff"/>
<path d="M207.599,347.224v -2.71594" fill="none" stroke="#0000ff"/>
<path d="M207.599,346.132v -1.35384" fill="none" stroke="#0000ff"/>
<path d="M205.974,344.778h 3.24888" fill="none" stroke="#0000ff"/>
<path d="M207.599,346.132v 1.0915" fill="none" stroke="#0000ff"/>
<path d="M205.974,347.224h 3.24888" fill="none" stroke="#0000ff"/>
<path d="M213.429,343.613h -3.34011e-07" fill="none" stroke="#0000ff"/>
<path d="M213.429,345.238v -3.24888" fill="none" stroke="#0000ff"/>
<path d="M213.429,343.613h 3.34011e-07" fill="none" stroke="#0000ff"/>
<path d="M213.429,345.238v -3.24888" fill="none" stroke="#0000ff"/>
<path d="M213.429,343.613v -1.50195" fill="none" stroke="#0000ff"/>
<path d="M211.804,342.111h 3.24888" fill="none" stroke="#0000ff"/>
<path d="M213.429,343.613v 1.50195" fill="none" stroke="#0000ff"/>
<path d="M211.804,345.115h 3.24888" fill="none" stroke="#0000ff"/>
<path d="M219.258,346.132h -3.33968e-07" fill="none" stroke="#0000ff"/>
<path d="M219.258,347.224v -2.71594" fill="none" stroke="#0000ff"/>
<path d="M219.258,346.132h 3.33968e-07" fill="none" stroke="#0000ff"/>
<path d="M219.258,347.224v -2.71594" fill="none" stroke="#0000ff"/>
<path d="M219.258,346.132v -1.35384" fill="none" stroke="#0000ff"/>
<path d="M217.634,344.778h 3.24888" fill="none" stroke="#0000ff"/>
<path d="M219.258,346.132v 1.0915" fill="none" stroke="#0000ff"/>
<path d="M217.634,347.224h 3.24888" fill="none" stroke="#0000ff"/>
<path d="M225.086,345.293h -3.33925e-07" fill="none" stroke="#0000ff"/>
<path d="M225.086,346.917v -3.24888" fill="none" stroke="#0000ff"/>
<path d="M225.086,345.293h 3.33925e-07" fill="none" stroke="#0000ff"/>
<path d="M225.086,346.917v -3.24888" fill="none" stroke="#0000ff"/>
<path d="M225.086,345.293v -1.40495" fill="none" stroke="#0000ff"/>
<path d="M223.462,343.888h 3.24888" fill="none" stroke="#0000ff"/>
<path d="M225.086,345.293v 1.40495" fill="none" stroke="#0000ff"/>
<path d="M223.462,346.698h 3.24888" fill="none" stroke="#0000ff"/>
<path d="M230.914,346.132h -3.3388e-07" fill="none" stroke="#0000ff"/>
<path d="M230.914,347.224v -2.71594" fill="none" stroke="#0000ff"/>
<path d="M230.914,346.132h 3.3388e-07" fill="none" stroke="#0000ff"/>
<path d="M230.914,347.224v -2.71594" fill="none" stroke="#0000ff"/>
<path d="M230.914,346.132v -1.35384" fill="none" stroke="#0000ff"/>
<path d="M229.29,344.778h 3.24888" fill="none" stroke="#0000ff"/>
<path d="M230.914,346.132v 1.0915" fill="none" stroke="#0000ff"/>
<path d="M229.29,347.224h 3.24888" fill="none" stroke="#0000ff"/>
<path d="M236.741,342.774h -3.33834e-07" fill="none" stroke="#0000ff"/>
<path d="M236.741,344.398v -3.24888" fill="none" stroke="#0000ff"/>
<path d="M236.741,342.774h 3.33834e-07" fill="none" stroke="#0000ff"/>
<path d="M236.741,344.398v -3.24888" fill="none" stroke="#0000ff"/>
<path d="M236.741,342.774v -1.54818" fill="none" stroke="#0000ff"/>
<path d="M235.117,341.226h 3.24888" fill="none" stroke="#0000ff"/>
<path d="M236.741,342.774v 1.54818" fill="none" stroke="#0000ff"/>
<path d="M235.117,344.322h 3.24888" fill="none" stroke="#0000ff"/>
<path d="M242.567,342.774h -3.33787e-07" fill="none" stroke="#0000ff"/>
<path d="M242.567,344.398v -3.24888" fill="none" stroke="#0000ff"/>
<path d="M242.567,342.774h 3.33787e-07" fill="none" stroke="#0000ff"/>
<path d="M242.567,344.398v -3.24888" fill="none" stroke="#0000ff"/>
<path d="M242.567,342.774v -1.54818" fill="none" stroke="#0000ff"/>
<path d="M240.943,341.226h 3.24888" fill="none" stroke="#0000ff"/>
<path d="M242.567,342.774v 1.54818" fill="none" stroke="#0000ff"/>
<path d="M240.943,344.322h 3.24888" fill="none" stroke="#0000ff"/>
<path d="M248.392,339.415h -3.3374e-07" fill="none" stroke="#0000ff"/>
<path d="M248.392,341.04v -3.24888" fill="none" stroke="#0000ff"/>
<path d="M248.392,339.415h 3.3374e-07" fill="none" stroke="#0000ff"/>
<path d="M248.392,341.04v -3.24888" fill="none" stroke="#0000ff"/>
<path d="M248.392,339.415v -1.7207" fill="none" stroke="#0000ff"/>
<path d="M246.768,337.695h 3.24888" fill="none" stroke="#0000ff"/>
<path d="M248.392,339.415v 1.7207" fill="none" stroke="#0000ff"/>
<path d="M246.768,341.136h 3.24888" fill="none" stroke="#0000ff"/>
<path d="M254.217,336.896h -3.33691e-07" fill="none" stroke="#0000ff"/>
<path d="M254.217,338.521v -3.24888" fill="none" stroke="#0000ff"/>
<path d="M254.217,336.896h 3.33691e-07" fill="none" stroke="#0000ff"/>
<path d="M254.217,338.521v -3.24888" fill="none" stroke="#0000ff"/>
<path d="M254.217,336.896v -1.83951" fill="none" stroke="#0000ff"/>
<path d="M252.592,335.057h 3.24888" fill="none" stroke="#0000ff"/>
<path d="M254.217,336.896v 1.83951" fill="none" stroke="#0000ff"/>
<path d="M252.592,338.736h 3.24888" fill="none" stroke="#0000ff"/>
<path d="M260.04,333.538h -3.33641e-07" fill="none" stroke="#0000ff"/>
<path d="M260.04,335.162v -3.24888" fill="none" stroke="#0000ff"/>
<path d="M260.04,333.538h 3.33641e-07" fill="none" stroke="#0000ff"/>
<path d="M260.04,335.162v -3.24888" fill="none" stroke="#0000ff"/>
<path d="M260.04,333.538v -1.9869" fill="none" stroke="#0000ff"/>
<path d="M258.416,331.551h 3.24888" fill="none" stroke="#0000ff"/>
<path d="M260.04,333.538v 1.9869" fill="none" stroke="#0000ff"/>
<path d="M258.416,335.525h 3.24888" fill="none" stroke="#0000ff"/>
<path d="M265.863,328.5h -3.3359e-07" fill="none" stroke="#0000ff"/>
<path d="M265.863,330.125v -3.24888" fill="none" stroke="#0000ff"/>
<path d="M265.863,328.5h 3.3359e-07" fill="none" stroke="#0000ff"/>
<path d="M265.863,330.125v -3.24888" fill="none" stroke="#0000ff"/>
<path d="M265.863,328.5v -2.18945" fill="none" stroke="#0000ff"/>
<path d="M264.239,326.311h 3.24888" fill="none" stroke="#0000ff"/>
<path d="M265.863,328.5v 2.18945" fill="none" stroke="#0000ff"/>
<path d="M264.239,330.69h 3.24888" fill="none" stroke="#0000ff"/>
<path d="M271.685,331.859h -3.33539e-07" fill="none" stroke="#0000ff"/>
<path d="M271.685,333.483v -3.24888" fill="none" stroke="#0000ff"/>
<path d="M271.685,331.859h 3.33539e-07" fill="none" stroke="#0000ff"/>
<path d="M271.685,333.483v -3.24888" fill="none" stroke="#0000ff"/>
<path d="M271.685,331.859v -2.05663" fill="none" stroke="#0000ff"/>
<path d="M270.06,329.802h 3.24888" fill="none" stroke="#0000ff"/>
<path d="M271.685,331.859v 2.05663" fill="none" stroke="#0000ff"/>
<path d="M270.06,333.915h 3.24888" fill="none" stroke="#0000ff"/>
<path d="M277.506,325.142h -3.33486e-07" fill="none" stroke="#0000ff"/>
<path d="M277.506,326.766v -3.24888" fill="none" stroke="#0000ff"/>
<path d="M277.506,325.142h 3.33486e-07" fill="none" stroke="#0000ff"/>
<path d="M277.506,326.766v -3.24888" fill="none" stroke="#0000ff"/>
<path d="M277.506,325.142v -2.31467" fill="none" stroke="#0000ff"/>
<path d="M275.881,322.827h 3.24888" fill="none" stroke="#0000ff"/>
<path d="M277.506,325.142v 2.31467" fill="none" stroke="#0000ff"/>
<path d="M275.881,327.457h 3.24888" fill="none" stroke="#0000ff"/>
<path d="M283.326,322.623h -3.33432e-07" fill="none" stroke="#0000ff"/>
<path d="M283.326,324.247v -3.24888" fill="none" stroke="#0000ff"/>
<path d="M283.326,322.623h 3.33432e-07" fill="none" stroke="#0000ff"/>
<path d="M283.326,324.247v -3.24888" fill="none" stroke="#0000ff"/>
<path d="M283.326,322.623v -2.4043" fill="none" stroke="#0000ff"/>
<path d="M281.701,320.219h 3.24888" fill="none" stroke="#0000ff"/>
<path d="M283.326,322.623v 2.4043" fill="none" stroke="#0000ff"/>
<path d="M281.701,325.027h 3.24888" fill="none" stroke="#0000ff"/>
<path d="M289.145,316.746h -3.33377e-07" fill="none" stroke="#0000ff"/>
<path d="M289.145,318.37v -3.24888" fill="none" stroke="#0000ff"/>
<path d="M289.145,316.746h 3.33377e-07" fill="none" stroke="#0000ff"/>
<path d="M289.145,318.37v -3.24888" fill="none" stroke="#0000ff"/>
<path d="M289.145,316.746v -2.60146" fill="none" stroke="#0000ff"/>
<path d="M287.52,314.144h 3.24888" fill="none" stroke="#0000ff"/>
<path d="M289.145,316.746v 2.60146" fill="none" stroke="#0000ff"/>
<path d="M287.52,319.347h 3.24888" fill="none" stroke="#0000ff"/>
<path d="M294.963,310.868h -3.33322e-07" fill="none" stroke="#0000ff"/>
<path d="M294.963,312.493v -3.24888" fill="none" stroke="#0000ff"/>
<path d="M294.963,310.868h 3.33322e-07" fill="none" stroke="#0000ff"/>
<path d="M294.963,312.493v -3.24888" fill="none" stroke="#0000ff"/>
<path d="M294.963,310.868v -2.7847" fill="none" stroke="#0000ff"/>
<path d="M293.338,308.084h 3.24888" fill="none" stroke="#0000ff"/>
<path d="M294.963,310.868v 2.7847" fill="none" stroke="#0000ff"/>
<path d="M293.338,313.653h 3.24888" fill="none" stroke="#0000ff"/>
<path d="M300.78,313.387h -3.33265e-07" fill="none" stroke="#0000ff"/>
<path d="M300.78,315.012v -3.24888" fill="none" stroke="#0000ff"/>
<path d="M300.78,313.387h 3.33265e-07" fill="none" stroke="#0000ff"/>
<path d="M300.78,315.012v -3.24888" fill="none" stroke="#0000ff"/>
<path d="M300.78,313.387v -2.70768" fill="none" stroke="#0000ff"/>
<path d="M299.155,310.68h 3.24888" fill="none" stroke="#0000ff"/>
<path d="M300.78,313.387v 2.70768" fill="none" stroke="#0000ff"/>
<path d="M299.155,316.095h 3.24888" fill="none" stroke="#0000ff"/>
<path d="M306.596,307.51h -3.33207e-07" fill="none" stroke="#0000ff"/>
<path d="M306.596,309.134v -3.24888" fill="none" stroke="#0000ff"/>
<path d="M306.596,307.51h 3.33207e-07" fill="none" stroke="#0000ff"/>
<path d="M306.596,309.134v -3.24888" fill="none" stroke="#0000ff"/>
<path d="M306.596,307.51v -2.88418" fill="none" stroke="#0000ff"/>
<path d="M304.971,304.626h 3.24888" fill="none" stroke="#0000ff"/>
<path d="M306.596,307.51v 2.88418" fill="none" stroke="#0000ff"/>
<path d="M304.971,310.394h 3.24888" fill="none" stroke="#0000ff"/>
<path d="M312.411,300.793h -3.33148e-07" fill="none" stroke="#0000ff"/>
<path d="M312.411,302.417v -3.24888" fill="none" stroke="#0000ff"/>
<path d="M312.411,300.793h 3.33149e-07" fill="none" stroke="#0000ff"/>
<path d="M312.411,302.417v -3.24888" fill="none" stroke="#0000ff"/>
<path d="M312.411,300.793v -3.0735" fill="none" stroke="#0000ff"/>
<path d="M310.787,297.719h 3.24888" fill="none" stroke="#0000ff"/>
<path d="M312.411,300.793v 3.0735" fill="none" stroke="#0000ff"/>
<path d="M310.787,303.866h 3.24888" fill="none" stroke="#0000ff"/>
<path d="M318.225,297.434h -3.33089e-07" fill="none" stroke="#0000ff"/>
<path d="M318.225,299.059v -3.24888" fill="none" stroke="#0000ff"/>
<path d="M318.225,297.434h 3.33089e-07" fill="none" stroke="#0000ff"/>
<path d="M318.225,299.059v -3.24888" fill="none" stroke="#0000ff"/>
<path d="M318.225,297.434v -3.16392" fill="none" stroke="#0000ff"/>
<path d="M316.601,294.271h 3.24888" fill="none" stroke="#0000ff"/>
<path d="M318.225,297.434v 3.16392" fill="none" stroke="#0000ff"/>
<path d="M316.601,300.598h 3.24888" fill="none" stroke="#0000ff"/>
<path d="M324.038,285.68h -3.33028e-07" fill="none" stroke="#0000ff"/>
<path d="M324.038,287.304v -3.24888" fill="none" stroke="#0000ff"/>
<path d="M324.038,285.68h 3.33028e-07" fill="none" stroke="#0000ff"/>
<path d="M324.038,287.304v -3.24888" fill="none" stroke="#0000ff"/>
<path d="M324.038,285.68v -3.46183" fill="none" stroke="#0000ff"/>
<path d="M322.414,282.218h 3.24888" fill="none" stroke="#0000ff"/>
<path d="M324.038,285.68v 3.46183" fill="none" stroke="#0000ff"/>
<path d="M322.414,289.142h 3.24888" fill="none" stroke="#0000ff"/>
<path d="M329.85,279.803h -3.32966e-07" fill="none" stroke="#0000ff"/>
<path d="M329.85,281.427v -3.24888" fill="none" stroke="#0000ff"/>
<path d="M329.85,279.803h 3.32966e-07" fill="none" stroke="#0000ff"/>
<path d="M329.85,281.427v -3.24888" fill="none" stroke="#0000ff"/>
<path d="M329.85,279.803v -3.60156" fill="none" stroke="#0000ff"/>
<path d="M328.225,276.201h 3.24888" fill="none" stroke="#0000ff"/>
<path d="M329.85,279.803v 3.60156" fill="none" stroke="#0000ff"/>
<path d="M328.225,283.404h 3.24888" fill="none" stroke="#0000ff"/>
<path d="M335.661,275.604h -3.32904e-07" fill="none" stroke="#0000ff"/>
<path d="M335.661,277.229v -3.24888" fill="none" stroke="#0000ff"/>
<path d="M335.661,275.604h 3.32904e-07" fill="none" stroke="#0000ff"/>
<path d="M335.661,277.229v -3.24888" fill="none" stroke="#0000ff"/>
<path d="M335.661,275.604v -3.69813" fill="none" stroke="#0000ff"/>
<path d="M334.036,271.906h 3.24888" fill="none" stroke="#0000ff"/>
<path d="M335.661,275.604v 3.69813" fill="none" stroke="#0000ff"/>
<path d="M334.036,279.303h 3.24888" fill="none" stroke="#0000ff"/>
<path d="M341.47,280.642h -3.3284e-07" fill="none" stroke="#0000ff"/>
<path d="M341.47,282.267v -3.24888" fill="none" stroke="#0000ff"/>
<path d="M341.47,280.642h 3.3284e-07" fill="none" stroke="#0000ff"/>
<path d="M341.47,282.267v -3.24888" fill="none" stroke="#0000ff"/>
<path d="M341.47,280.642v -3.58193" fill="none" stroke="#0000ff"/>
<path d="M339.846,277.06h 3.24888" fill="none" stroke="#0000ff"/>
<path d="M341.47,280.642v 3.58193" fill="none" stroke="#0000ff"/>
<path d="M339.846,284.224h 3.24888" fill="none" stroke="#0000ff"/>
<path d="M347.279,263.01h -3.32775e-07" fill="none" stroke="#0000ff"/>
<path d="M347.279,264.635v -3.24888" fill="none" stroke="#0000ff"/>
<path d="M347.279,263.01h 3.32775e-07" fill="none" stroke="#0000ff"/>
<path d="M347.279,264.635v -3.24888" fill="none" stroke="#0000ff"/>
<path d="M347.279,263.01v -3.97379" fill="none" stroke="#0000ff"/>
<path d="M345.655,259.036h 3.24888" fill="none" stroke="#0000ff"/>
<path d="M347.279,263.01v 3.97379" fill="none" stroke="#0000ff"/>
<path d="M345.655,266.984h 3.24888" fill="none" stroke="#0000ff"/>
<path d="M353.086,255.454h -3.3271e-07" fill="none" stroke="#0000ff"/>
<path d="M353.086,257.078v -3.24888" fill="none" stroke="#0000ff"/>
<path d="M353.086,255.454h 3.3271e-07" fill="none" stroke="#0000ff"/>
<path d="M353.086,257.078v -3.24888" fill="none" stroke="#0000ff"/>
<path d="M353.086,255.454v -4.13037" fill="none" stroke="#0000ff"/>
<path d="M351.462,251.323h 3.24888" fill="none" stroke="#0000ff"/>
<path d="M353.086,255.454v 4.13037" fill="none" stroke="#0000ff"/>
<path d="M351.462,259.584h 3.24888" fill="none" stroke="#0000ff"/>
<path d="M358.893,258.812h -3.32643e-07" fill="none" stroke="#0000ff"/>
<path d="M358.893,260.437v -3.24888" fill="none" stroke="#0000ff"/>
<path d="M358.893,258.812h 3.32643e-07" fill="none" stroke="#0000ff"/>
<path d="M358.893,260.437v -3.24888" fill="none" stroke="#0000ff"/>
<path d="M358.893,258.812v -4.06153" fill="none" stroke="#0000ff"/>
<path d="M357.268,254.751h 3.24888" fill="none" stroke="#0000ff"/>
<path d="M358.893,258.812v 4.06153" fill="none" stroke="#0000ff"/>
<path d="M357.268,262.874h 3.24888" fill="none" stroke="#0000ff"/>
<path d="M364.698,237.822h -3.32575e-07" fill="none" stroke="#0000ff"/>
<path d="M364.698,239.446v -3.24888" fill="none" stroke="#0000ff"/>
<path d="M364.698,237.822h 3.32575e-07" fill="none" stroke="#0000ff"/>
<path d="M364.698,239.446v -3.24888" fill="none" stroke="#0000ff"/>
<path d="M364.698,237.822v -4.47446" fill="none" stroke="#0000ff"/>
<path d="M363.073,233.347h 3.24888" fill="none" stroke="#0000ff"/>
<path d="M364.698,237.822v 4.47446" fill="none" stroke="#0000ff"/>
<path d="M363.073,242.296h 3.24888" fill="none" stroke="#0000ff"/>
<path d="M370.502,218.51h -3.32507e-07" fill="none" stroke="#0000ff"/>
<path d="M370.502,220.135v -3.24888" fill="none" stroke="#0000ff"/>
<path d="M370.502,218.51h 3.32507e-07" fill="none" stroke="#0000ff"/>
<path d="M370.502,220.135v -3.24888" fill="none" stroke="#0000ff"/>
<path d="M370.502,218.51v -4.82324" fill="none" stroke="#0000ff"/>
<path d="M368.877,213.687h 3.24888" fill="none" stroke="#0000ff"/>
<path d="M370.502,218.51v 4.82324" fill="none" stroke="#0000ff"/>
<path d="M368.877,223.334h 3.24888" fill="none" stroke="#0000ff"/>
<path d="M376.305,194.162h -3.32437e-07" fill="none" stroke="#0000ff"/>
<path d="M376.305,195.786v -3.24888" fill="none" stroke="#0000ff"/>
<path d="M376.305,194.162h 3.32437e-07" fill="none" stroke="#0000ff"/>
<path d="M376.305,195.786v -3.24888" fill="none" stroke="#0000ff"/>
<path d="M376.305,194.162v -5.22995" fill="none" stroke="#0000ff"/>
<path d="M374.68,188.932h 3.24888" fill="none" stroke="#0000ff"/>
<path d="M376.305,194.162v 5.22995" fill="none" stroke="#0000ff"/>
<path d="M374.68,199.391h 3.24888" fill="none" stroke="#0000ff"/>
<path d="M382.106,160.577h -3.32366e-07" fill="none" stroke="#0000ff"/>
<path d="M382.106,162.201v -3.24888" fill="none" stroke="#0000ff"/>
<path d="M382.106,160.577h 3.32366e-07" fill="none" stroke="#0000ff"/>
<path d="M382.106,162.201v -3.24888" fill="none" stroke="#0000ff"/>
<path d="M382.106,160.577v -5.74387" fill="none" stroke="#0000ff"/>
<path d="M380.482,154.833h 3.24888" fill="none" stroke="#0000ff"/>
<path d="M382.106,160.577v 5.74387" fill="none" stroke="#0000ff"/>
<path d="M380.482,166.321h 3.24888" fill="none" stroke="#0000ff"/>
<path d="M387.906,168.133h -3.32295e-07" fill="none" stroke="#0000ff"/>
<path d="M387.906,169.758v -3.24888" fill="none" stroke="#0000ff"/>
<path d="M387.906,168.133h 3.32295e-07" fill="none" stroke="#0000ff"/>
<path d="M387.906,169.758v -3.24888" fill="none" stroke="#0000ff"/>
<path d="M387.906,168.133v -5.63232" fill="none" stroke="#0000ff"/>
<path d="M386.282,162.501h 3.24888" fill="none" stroke="#0000ff"/>
<path d="M387.906,168.133v 5.63232" fill="none" stroke="#0000ff"/>
<path d="M386.282,173.766h 3.24888" fill="none" stroke="#0000ff"/>
<path d="M393.705,149.662h -3.32222e-07" fill="none" stroke="#0000ff"/>
<path d="M393.705,151.286v -3.24888" fill="none" stroke="#0000ff"/>
<path d="M393.705,149.662h 3.32222e-07" fill="none" stroke="#0000ff"/>
<path d="M393.705,151.286v -3.24888" fill="none" stroke="#0000ff"/>
<path d="M393.705,149.662v -5.90126" fill="none" stroke="#0000ff"/>
<path d="M392.081,143.761h 3.24888" fill="none" stroke="#0000ff"/>
<path d="M393.705,149.662v 5.90126" fill="none" stroke="#0000ff"/>
<path d="M392.081,155.563h 3.24888" fill="none" stroke="#0000ff"/>
<path d="M399.503,66.5397h -3.32148e-07" fill="none" stroke="#0000ff"/>
<path d="M399.503,68.1641v -3.24888" fill="none" stroke="#0000ff"/>
<path d="M399.503,66.5397h 3.32149e-07" fill="none" stroke="#0000ff"/>
<path d="M399.503,68.1641v -3.24888" fill="none" stroke="#0000ff"/>
<path d="M399.503,66.5397v -6.98449" fill="none" stroke="#0000ff"/>
<path d="M397.879,59.5552h 3.24888" fill="none" stroke="#0000ff"/>
<path d="M399.503,66.5397v 6.98449" fill="none" stroke="#0000ff"/>
<path d="M397.879,73.5242h 3.24888" fill="none" stroke="#0000ff"/>
<path d="M405.299,108.521h -3.32074e-07" fill="none" stroke="#0000ff"/>
<path d="M405.299,110.145v -3.24888" fill="none" stroke="#0000ff"/>
<path d="M405.299,108.521h 3.32074e-07" fill="none" stroke="#0000ff"/>
<path d="M405.299,110.145v -3.24888" fill="none" stroke="#0000ff"/>
<path d="M405.299,108.521v -6.46015" fill="none" stroke="#0000ff"/>
<path d="M403.675,102.06h 3.24888" fill="none" stroke="#0000ff"/>
<path d="M405.299,108.521v 6.46015" fill="none" stroke="#0000ff"/>
<path d="M403.675,114.981h 3.24888" fill="none" stroke="#0000ff"/>
<path d="M411.095,235.303h -3.31998e-07" fill="none" stroke="#0000ff"/>
<path d="M411.095,236.927v -3.24888" fill="none" stroke="#0000ff"/>
<path d="M411.095,235.303h 3.31998e-07" fill="none" stroke="#0000ff"/>
<path d="M411.095,236.927v -3.24888" fill="none" stroke="#0000ff"/>
<path d="M411.095,235.303v -4.52148" fill="none" stroke="#0000ff"/>
<path d="M409.47,230.781h 3.24888" fill="none" stroke="#0000ff"/>
<path d="M411.095,235.303v 4.52148" fill="none" stroke="#0000ff"/>
<path d="M409.47,239.824h 3.24888" fill="none" stroke="#0000ff"/>
<path d="M416.888,257.972h -3.31922e-07" fill="none" stroke="#0000ff"/>
<path d="M416.888,259.597v -3.24888" fill="none" stroke="#0000ff"/>
<path d="M416.888,257.972h 3.31922e-07" fill="none" stroke="#0000ff"/>
<path d="M416.888,259.597v -3.24888" fill="none" stroke="#0000ff"/>
<path d="M416.888,257.972v -4.07885" fill="none" stroke="#0000ff"/>
<path d="M415.264,253.894h 3.24888" fill="none" stroke="#0000ff"/>
<path d="M416.888,257.972v 4.07885" fill="none" stroke="#0000ff"/>
<path d="M415.264,262.051h 3.24888" fill="none" stroke="#0000ff"/>
<path d="M422.681,247.057h -3.31844e-07" fill="none" stroke="#0000ff"/>
<path d="M422.681,248.682v -3.24888" fill="none" stroke="#0000ff"/>
<path d="M422.681,247.057h 3.31844e-07" fill="none" stroke="#0000ff"/>
<path d="M422.681,248.682v -3.24888" fill="none" stroke="#0000ff"/>
<path d="M422.681,247.057v -4.29766" fill="none" stroke="#0000ff"/>
<path d="M421.056,242.76h 3.24888" fill="none" stroke="#0000ff"/>
<path d="M422.681,247.057v 4.29766" fill="none" stroke="#0000ff"/>
<path d="M421.056,251.355h 3.24888" fill="none" stroke="#0000ff"/>
<path d="M428.472,257.972h -3.31766e-07" fill="none" stroke="#0000ff"/>
<path d="M428.472,259.597v -3.24888" fill="none" stroke="#0000ff"/>
<path d="M428.472,257.972h 3.31766e-07" fill="none" stroke="#0000ff"/>
<path d="M428.472,259.597v -3.24888" fill="none" stroke="#0000ff"/>
<path d="M428.472,257.972v -4.07885" fill="none" stroke="#0000ff"/>
<path d="M426.848,253.894h 3.24888" fill="none" stroke="#0000ff"/>
<path d="M428.472,257.972v 4.07885" fill="none" stroke="#0000ff"/>
<path d="M426.848,262.051h 3.24888" fill="none" stroke="#0000ff"/>
<path d="M434.262,253.774h -3.31686e-07" fill="none" stroke="#0000ff"/>
<path d="M434.262,255.399v -3.24888" fill="none" stroke="#0000ff"/>
<path d="M434.262,253.774h 3.31686e-07" fill="none" stroke="#0000ff"/>
<path d="M434.262,255.399v -3.24888" fill="none" stroke="#0000ff"/>
<path d="M434.262,253.774v -4.16437" fill="none" stroke="#0000ff"/>
<path d="M432.637,249.61h 3.24888" fill="none" stroke="#0000ff"/>
<path d="M434.262,253.774v 4.16437" fill="none" stroke="#0000ff"/>
<path d="M432.637,257.939h 3.24888" fill="none" stroke="#0000ff"/>
<path d="M440.05,241.18h -3.31606e-07" fill="none" stroke="#0000ff"/>
<path d="M440.05,242.805v -3.24888" fill="none" stroke="#0000ff"/>
<path d="M440.05,241.18h 3.31606e-07" fill="none" stroke="#0000ff"/>
<path d="M440.05,242.805v -3.24888" fill="none" stroke="#0000ff"/>
<path d="M440.05,241.18v -4.41099" fill="none" stroke="#0000ff"/>
<path d="M438.426,236.769h 3.24888" fill="none" stroke="#0000ff"/>
<path d="M440.05,241.18v 4.41099" fill="none" stroke="#0000ff"/>
<path d="M438.426,245.591h 3.24888" fill="none" stroke="#0000ff"/>
<path d="M445.837,239.501h -3.31524e-07" fill="none" stroke="#0000ff"/>
<path d="M445.837,241.125v -3.24888" fill="none" stroke="#0000ff"/>
<path d="M445.837,239.501h 3.31524e-07" fill="none" stroke="#0000ff"/>
<path d="M445.837,241.125v -3.24888" fill="none" stroke="#0000ff"/>
<path d="M445.837,239.501v -4.44284" fill="none" stroke="#0000ff"/>
<path d="M444.212,235.058h 3.24888" fill="none" stroke="#0000ff"/>
<path d="M445.837,239.501v 4.44284" fill="none" stroke="#0000ff"/>
<path d="M444.212,243.944h 3.24888" fill="none" stroke="#0000ff"/>
<path d="M451.622,235.303h -3.31442e-07" fill="none" stroke="#0000ff"/>
<path d="M451.622,236.927v -3.24888" fill="none" stroke="#0000ff"/>
<path d="M451.622,235.303h 3.31442e-07" fill="none" stroke="#0000ff"/>
<path d="M451.622,236.927v -3.24888" fill="none" stroke="#0000ff"/>
<path d="M451.622,235.303v -4.52148" fill="none" stroke="#0000ff"/>
<path d="M449.998,230.781h 3.24888" fill="none" stroke="#0000ff"/>
<path d="M451.622,235.303v 4.52148" fill="none" stroke="#0000ff"/>
<path d="M449.998,239.824h 3.24888" fill="none" stroke="#0000ff"/>
<path d="M457.406,241.18h -3.31358e-07" fill="none" stroke="#0000ff"/>
<path d="M457.406,242.805v -3.24888" fill="none" stroke="#0000ff"/>
<path d="M457.406,241.18h 3.31358e-07" fill="none" stroke="#0000ff"/>
<path d="M457.406,242.805v -3.24888" fill="none" stroke="#0000ff"/>
<path d="M457.406,241.18v -4.41099" fill="none" stroke="#0000ff"/>
<path d="M455.782,236.769h 3.24888" fill="none" stroke="#0000ff"/>
<path d="M457.406,241.18v 4.41099" fill="none" stroke="#0000ff"/>
<path d="M455.782,245.591h 3.24888" fill="none" stroke="#0000ff"/>
<path d="M463.189,244.539h -3.31274e-07" fill="none" stroke="#0000ff"/>
<path d="M463.189,246.163v -3.24888" fill="none" stroke="#0000ff"/>
<path d="M463.189,244.539h 3.31273e-07" fill="none" stroke="#0000ff"/>
<path d="M463.189,246.163v -3.24888" fill="none" stroke="#0000ff"/>
<path d="M463.189,244.539v -4.34659" fill="none" stroke="#0000ff"/>
<path d="M461.564,240.192h 3.24888" fill="none" stroke="#0000ff"/>
<path d="M463.189,244.539v 4.34659" fill="none" stroke="#0000ff"/>
<path d="M461.564,248.885h 3.24888" fill="none" stroke="#0000ff"/>
<path d="M468.97,239.501h -3.31188e-07" fill="none" stroke="#0000ff"/>
<path d="M468.97,241.125v -3.24888" fill="none" stroke="#0000ff"/>
<path d="M468.97,239.501h 3.31188e-07" fill="none" stroke="#0000ff"/>
<path d="M468.97,241.125v -3.24888" fill="none" stroke="#0000ff"/>
<path d="M468.97,239.501v -4.44284" fill="none" stroke="#0000ff"/>
<path d="M467.346,235.058h 3.24888" fill="none" stroke="#0000ff"/>
<path d="M468.97,239.501v 4.44284" fill="none" stroke="#0000ff"/>
<path d="M467.346,243.944h 3.24888" fill="none" stroke="#0000ff"/>
<path d="M474.75,242.859h -3.31102e-07" fill="none" stroke="#0000ff"/>
<path d="M474.75,244.484v -3.24888" fill="none" stroke="#0000ff"/>
<path d="M474.75,242.859h 3.31102e-07" fill="none" stroke="#0000ff"/>
<path d="M474.75,244.484v -3.24888" fill="none" stroke="#0000ff"/>
<path d="M474.75,242.859v -4.37891" fill="none" stroke="#0000ff"/>
<path d="M473.125,238.48h 3.24888" fill="none" stroke="#0000ff"/>
<path d="M474.75,242.859v 4.37891" fill="none" stroke="#0000ff"/>
<path d="M473.125,247.238h 3.24888" fill="none" stroke="#0000ff"/>
<path d="M480.528,242.02h -3.31014e-07" fill="none" stroke="#0000ff"/>
<path d="M480.528,243.644v -3.24888" fill="none" stroke="#0000ff"/>
<path d="M480.528,242.02h 3.31014e-07" fill="none" stroke="#0000ff"/>
<path d="M480.528,243.644v -3.24888" fill="none" stroke="#0000ff"/>
<path d="M480.528,242.02v -4.39498" fill="none" stroke="#0000ff"/>
<path d="M478.903,237.625h 3.24888" fill="none" stroke="#0000ff"/>
<path d="M480.528,242.02v 4.39498" fill="none" stroke="#0000ff"/>
<path d="M478.903,246.415h 3.24888" fill="none" stroke="#0000ff"/>
<path d="M486.304,242.859h -3.30926e-07" fill="none" stroke="#0000ff"/>
<path d="M486.304,244.484v -3.24888" fill="none" stroke="#0000ff"/>
<path d="M486.304,242.859h 3.30926e-07" fill="none" stroke="#0000ff"/>
<path d="M486.304,244.484v -3.24888" fill="none" stroke="#0000ff"/>
<path d="M486.304,242.859v -4.37891" fill="none" stroke="#0000ff"/>
<path d="M484.68,238.48h 3.24888" fill="none" stroke="#0000ff"/>
<path d="M486.304,242.859v 4.37891" fill="none" stroke="#0000ff"/>
<path d="M484.68,247.238h 3.24888" fill="none" stroke="#0000ff"/>
<path d="M492.079,235.303h -3.30836e-07" fill="none" stroke="#0000ff"/>
<path d="M492.079,236.927v -3.24888" fill="none" stroke="#0000ff"/>
<path d="M492.079,235.303h 3.30836e-07" fill="none" stroke="#0000ff"/>
<path d="M492.079,236.927v -3.24888" fill="none" stroke="#0000ff"/>
<path d="M492.079,235.303v -4.52148" fill="none" stroke="#0000ff"/>
<path d="M490.455,230.781h 3.24888" fill="none" stroke="#0000ff"/>
<path d="M492.079,235.303v 4.52148" fill="none" stroke="#0000ff"/>
<path d="M490.455,239.824h 3.24888" fill="none" stroke="#0000ff"/>
<path d="M497.852,236.982h -3.30746e-07" fill="none" stroke="#0000ff"/>
<path d="M497.852,238.606v -3.24888" fill="none" stroke="#0000ff"/>
<path d="M497.852,236.982h 3.30746e-07" fill="none" stroke="#0000ff"/>
<path d="M497.852,238.606v -3.24888" fill="none" stroke="#0000ff"/>
<path d="M497.852,236.982v -4.49019" fill="none" stroke="#0000ff"/>
<path d="M496.228,232.492h 3.24888" fill="none" stroke="#0000ff"/>
<path d="M497.852,236.982v 4.49019" fill="none" stroke="#0000ff"/>
<path d="M496.228,241.472h 3.24888" fill="none" stroke="#0000ff"/>
<path d="M503.624,232.784h -3.30654e-07" fill="none" stroke="#0000ff"/>
<path d="M503.624,234.408v -3.24888" fill="none" stroke="#0000ff"/>
<path d="M503.624,232.784h 3.30654e-07" fill="none" stroke="#0000ff"/>
<path d="M503.624,234.408v -3.24888" fill="none" stroke="#0000ff"/>
<path d="M503.624,232.784v -4.56801" fill="none" stroke="#0000ff"/>
<path d="M502,228.216h 3.24888" fill="none" stroke="#0000ff"/>
<path d="M503.624,232.784v 4.56801" fill="none" stroke="#0000ff"/>
<path d="M502,237.352h 3.24888" fill="none" stroke="#0000ff"/>
<path d="M509.395,240.34h -3.30562e-07" fill="none" stroke="#0000ff"/>
<path d="M509.395,241.965v -3.24888" fill="none" stroke="#0000ff"/>
<path d="M509.395,240.34h 3.30562e-07" fill="none" stroke="#0000ff"/>
<path d="M509.395,241.965v -3.24888" fill="none" stroke="#0000ff"/>
<path d="M509.395,240.34v -4.42694" fill="none" stroke="#0000ff"/>
<path d="M507.77,235.914h 2.96617" fill="none" stroke="#0000ff"/>
<path d="M509.395,240.34v 4.42694" fill="none" stroke="#0000ff"/>
<path d="M507.77,244.767h 2.96617" fill="none" stroke="#0000ff"/>
<g stroke="black" stroke-width="1" fill="none">
<line x1="124.912" y1="105.162" x2="125.912" y2="105.162"/>
<line x1="130.75" y1="121.115" x2="131.75" y2="121.115"/>
<line x1="136.588" y1="171.492" x2="137.588" y2="171.492"/>
<line x1="142.425" y1="228.586" x2="143.425" y2="228.586"/>
<line x1="148.262" y1="253.774" x2="149.262" y2="253.774"/>
<line x1="154.099" y1="289.878" x2="155.099" y2="289.878"/>
<line x1="159.935" y1="312.548" x2="160.935" y2="312.548"/>
<line x1="165.77" y1="328.5" x2="166.77" y2="328.5"/>
<line x1="171.604" y1="336.896" x2="172.604" y2="336.896"/>
<line x1="177.439" y1="337.736" x2="178.439" y2="337.736"/>
<line x1="183.272" y1="339.415" x2="184.272" y2="339.415"/>
<line x1="189.105" y1="339.415" x2="190.105" y2="339.415"/>
<line x1="194.937" y1="343.613" x2="195.937" y2="343.613"/>
<line x1="200.768" y1="341.095" x2="201.768" y2="341.095"/>
<line x1="206.599" y1="346.132" x2="207.599" y2="346.132"/>
<line x1="212.429" y1="343.613" x2="213.429" y2="343.613"/>
<line x1="218.258" y1="346.132" x2="219.258" y2="346.132"/>
<line x1="224.086" y1="345.293" x2="225.086" y2="345.293"/>
<line x1="229.914" y1="346.132" x2="230.914" y2="346.132"/>
<line x1="235.741" y1="342.774" x2="236.741" y2="342.774"/>
<line x1="241.567" y1="342.774" x2="242.567" y2="342.774"/>
<line x1="247.392" y1="339.415" x2="248.392" y2="339.415"/>
<line x1="253.217" y1="336.896" x2="254.217" y2="336.896"/>
<line x1="259.04" y1="333.538" x2="260.04" y2="333.538"/>
<line x1="264.863" y1="328.5" x2="265.863" y2="328.5"/>
<line x1="270.685" y1="331.859" x2="271.685" y2="331.859"/>
<line x1="276.506" y1="325.142" x2="277.506" y2="325.142"/>
<line x1="282.326" y1="322.623" x2="283.326" y2="322.623"/>
<line x1="288.145" y1="316.746" x2="289.145" y2="316.746"/>
<line x1="293.963" y1="310.868" x2="294.963" y2="310.868"/>
<line x1="299.78" y1="313.387" x2="300.78" y2="313.387"/>
<line x1="305.596" y1="307.51" x2="306.596" y2="307.51"/>
<line x1="311.411" y1="300.793" x2="312.411" y2="300.793"/>
<line x1="317.225" y1="297.434" x2="318.225" y2="297.434"/>
<line x1="323.038" y1="285.68" x2="324.038" y2="285.68"/>
<line x1="328.85" y1="279.803" x2="329.85" y2="279.803"/>
<line x1="334.661" y1="275.604" x2="335.661" y2="275.604"/>
<line x1="340.47" y1="280.642" x2="341.47" y2="280.642"/>
<line x1="346.279" y1="263.01" x2="347.279" y2="263.01"/>
<line x1="352.086" y1="255.454" x2="353.086" y2="255.454"/>
<line x1="357.893" y1="258.812" x2="358.893" y2="258.812"/>
<line x1="363.698" y1="237.822" x2="364.698" y2="237.822"/>
<line x1="369.502" y1="218.51" x2="370.502" y2="218.51"/>
<line x1="375.305" y1="194.162" x2="376.305" y2="194.162"/>
<line x1="381.106" y1="160.577" x2="382.106" y2="160.577"/>
<line x1="386.906" y1="168.133" x2="387.906" y2="168.133"/>
<line x1="392.705" y1="149.662" x2="393.705" y2="149.662"/>
<line x1="398.503" y1="66.5397" x2="399.503" y2="66.5397"/>
<line x1="404.299" y1="108.521" x2="405.299" y2="108.521"/>
<line x1="410.095" y1="235.303" x2="411.095" y2="235.303"/>
<line x1="415.888" y1="257.972" x2="416.888" y2="257.972"/>
<line x1="421.681" y1="247.057" x2="422.681" y2="247.057"/>
<line x1="427.472" y1="257.972" x2="428.472" y2="257.972"/>
<line x1="433.262" y1="253.774" x2="434.262" y2="253.774"/>
<line x1="439.05" y1="241.18" x2="440.05" y2="241.18"/>
<line x1="444.837" y1="239.501" x2="445.837" y2="239.501"/>
<line x1="450.622" y1="235.303" x2="451.622" y2="235.303"/>
<line x1="456.406" y1="241.18" x2="457.406" y2="241.18"/>
<line x1="462.189" y1="244.539" x2="463.189" y2="244.539"/>
<line x1="467.97" y1="239.501" x2="468.97" y2="239.501"/>
<line x1="473.75" y1="242.859" x2="474.75" y2="242.859"/>
<line x1="479.528" y1="242.02" x2="480.528" y2="242.02"/>
<line x1="485.304" y1="242.859" x2="486.304" y2="242.859"/>
<line x1="491.079" y1="235.303" x2="492.079" y2="235.303"/>
<line x1="496.852" y1="236.982" x2="497.852" y2="236.982"/>
<line x1="502.624" y1="232.784" x2="503.624" y2="232.784"/>
<line x1="508.395" y1="240.34" x2="509.395" y2="240.34"/>
</g>
<path d="M242.7,345.546l 1.07975, -0.722999l 1.07975, -0.722999l 1.07975, -0.722999l 1.07975, -0.722999l 1.07975, -0.722999l 1.07975, -0.722999l 1.07975, -0.722999l 1.07975, -0.722999l 1.07975, -0.722999l 1.07975, -0.722999l 1.07975, -0.722999l
 1.07975, -0.722999l 1.07975, -0.722999l 1.07975, -0.722999l 1.07975, -0.722999l 1.07975, -0.722999l 1.07975, -0.722999l 1.07975, -0.722999l 1.07975, -0.722999l 1.07975, -0.722999l 1.07975, -0.722999l 1.07975, -0.722999l 1.07975, -0.722999l 1.07975,
 -0.722999l 1.07975, -0.722999l 1.07975, -0.722999l 1.07975, -0.722999l 1.07975, -0.722999l 1.07975, -0.722999l 1.07975, -0.722999l 1.07975, -0.722999l 1.07975, -0.722999l 1.07975, -0.722999l 1.07975, -0.722999l 1.07975, -0.722999l 1.07975,
 -0.722999l 1.07975, -0.722999l 1.07975, -0.722999l 1.07975, -0.722999l 1.07975, -0.722999l 1.07975, -0.722999l 1.07975, -0.722999l 1.07975, -0.722999l 1.07975, -0.722999l 1.07975, -0.722999l 1.07975, -0.722999l 1.07975, -0.722999l 1.07975,
 -0.722999l 1.07975, -0.722999" fill="none" stroke="#ff0000" stroke-width="5"/>
<path d="M295.607,310.119l 1.07975, -0.722999l 1.07975, -0.722999l 1.07975, -0.722999l 1.07975, -0.722999l 1.07975, -0.722999l 1.07975, -0.722999l 1.07975, -0.722999l 1.07975, -0.722999l 1.07975, -0.722999l 1.07975, -0.722999l 1.07975, -0.722999l
 1.07975, -0.722999l 1.07975, -0.722999l 1.07975, -0.722999l 1.07975, -0.722999l 1.07975, -0.722999l 1.07975, -0.722999l 1.07975, -0.722999l 1.07975, -0.722999l 1.07975, -0.722999l 1.07975, -0.722999l 1.07975, -0.722999l 1.07975, -0.722999l 1.07975,
 -0.722999l 1.07975, -0.722999l 1.07975, -0.722999l 1.07975, -0.722999l 1.07975, -0.722999l 1.07975, -0.722999l 1.07975, -0.722999l 1.07975, -0.722999l 1.07975, -0.722999l 1.07975, -0.722999l 1.07975, -0.722999l 1.07975, -0.722999l 1.07975,
 -0.722999l 1.07975, -0.722999l 1.07975, -0.722999l 1.07975, -0.722999l 1.07975, -0.722999l 1.07975, -0.722999l 1.07975, -0.722999l 1.07975, -0.722999l 1.07975, -0.722999l 1.07975, -0.722999l 1.07975, -0.722999l 1.07975, -0.722999l 1.07975,
 -0.722999l 1.07975, -0.722999" fill="none" stroke="#ff0000" stroke-width="5"/>
<path d="M348.515,274.692l 1.07975, -0.722999" fill="none" stroke="#ff0000" stroke-width="5"/>
<rect x="351.996" y="25.0773" width="204.094" height="77.1608" fill="white"/>
<path d="M351.996,102.238h 204.094" fill="none" stroke="black"/>
<path d="M556.091,102.238v -77.1608" fill="none" stroke="black"/>
<path d="M556.091,25.0773h -204.094" fill="none" stroke="black"/>
<path d="M351.996,25.0773v 77.1608" fill="none" stroke="black"/>
<text xml:space="preserve" x="377.37" y="38.9865" fill="black" font-size="16.7816" font-family="Helvetica"> / ndf </text>
<text xml:space="preserve" x="370.872" y="34.1132" fill="black" font-size="11.3544" font-family="Helvetica">2</text>
<text xml:space="preserve" x="361.938" y="38.9865" fill="black" font-size="16.7816" font-family="Times">&#0967;</text>
<text xml:space="preserve" x="469.151" y="40.611" fill="black" font-size="16.7816" font-family="Helvetica"> 50.19 / 17</text>
<text xml:space="preserve" x="361.938" y="60.1042" fill="black" font-size="16.7816" font-family="Helvetica">Prob  </text>
<text xml:space="preserve" x="527.63" y="60.1042" fill="black" font-size="16.7816" font-family="Helvetica">05</text>
<text xml:space="preserve" x="518.696" y="60.1042" fill="black" font-size="16.7816" font-family="Times">&#8722;</text>
<text xml:space="preserve" x="465.089" y="60.1042" fill="black" font-size="16.7816" font-family="Helvetica"> 3.952e</text>
<text xml:space="preserve" x="361.938" y="77.9731" fill="black" font-size="16.7816" font-family="Helvetica">p0       </text>
<text xml:space="preserve" x="500.827" y="79.5975" fill="black" font-size="16.7816" font-family="Helvetica"> 133.3</text>
<text xml:space="preserve" x="491.893" y="79.5975" fill="black" font-size="16.7816" font-family="Times">&#0177;</text>
<text xml:space="preserve" x="441.535" y="79.5975" fill="black" font-size="16.7816" font-family="Helvetica">  4784 </text>
<text xml:space="preserve" x="361.938" y="97.4663" fill="black" font-size="16.7816" font-family="Helvetica">p1       </text>
<text xml:space="preserve" x="500.827" y="99.0908" fill="black" font-size="16.7816" font-family="Helvetica"> 6.962</text>
<text xml:space="preserve" x="491.893" y="99.0908" fill="black" font-size="16.7816" font-family="Times">&#0177;</text>
<text xml:space="preserve" x="445.596" y="99.0908" fill="black" font-size="16.7816" font-family="Helvetica">206.8 </text>
<text xml:space="preserve" x="436.662" y="99.0908" fill="black" font-size="16.7816" font-family="Times">&#8722;</text>
<text xml:space="preserve" x="430.976" y="99.0908" fill="black" font-size="16.7816" font-family="Helvetica"> </text>
<rect x="351.996" y="25.0773" width="204.094" height="77.1608" fill="white"/>
<path d="M351.996,102.238h 204.094" fill="none" stroke="black"/>
<path d="M556.091,102.238v -77.1608" fill="none" stroke="black"/>
<path d="M556.091,25.0773h -204.094" fill="none" stroke="black"/>
<path d="M351.996,25.0773v 77.1608" fill="none" stroke="black"/>
<text xml:space="preserve" x="377.37" y="38.9865" fill="black" font-size="16.7816" font-family="Helvetica"> / ndf </text>
<text xml:space="preserve" x="370.872" y="34.1132" fill="black" font-size="11.3544" font-family="Helvetica">2</text>
<text xml:space="preserve" x="361.938" y="38.9865" fill="black" font-size="16.7816" font-family="Times">&#0967;</text>
<text xml:space="preserve" x="469.151" y="40.611" fill="black" font-size="16.7816" font-family="Helvetica"> 50.19 / 17</text>
<text xml:space="preserve" x="361.938" y="60.1042" fill="black" font-size="16.7816" font-family="Helvetica">Prob  </text>
<text xml:space="preserve" x="527.63" y="60.1042" fill="black" font-size="16.7816" font-family="Helvetica">05</text>
<text xml:space="preserve" x="518.696" y="60.1042" fill="black" font-size="16.7816" font-family="Times">&#8722;</text>
<text xml:space="preserve" x="465.089" y="60.1042" fill="black" font-size="16.7816" font-family="Helvetica"> 3.952e</text>
<text xml:space="preserve" x="361.938" y="77.9731" fill="black" font-size="16.7816" font-family="Helvetica">p0       </text>
<text xml:space="preserve" x="500.827" y="79.5975" fill="black" font-size="16.7816" font-family="Helvetica"> 133.3</text>
<text xml:space="preserve" x="491.893" y="79.5975" fill="black" font-size="16.7816" font-family="Times">&#0177;</text>
<text xml:space="preserve" x="441.535" y="79.5975" fill="black" font-size="16.7816" font-family="Helvetica">  4784 </text>
<text xml:space="preserve" x="361.938" y="97.4663" fill="black" font-size="16.7816" font-family="Helvetica">p1       </text>
<text xml:space="preserve" x="500.827" y="99.0908" fill="black" font-size="16.7816" font-family="Helvetica"> 6.962</text>
<text xml:space="preserve" x="491.893" y="99.0908" fill="black" font-size="16.7816" font-family="Times">&#0177;</text>
<text xml:space="preserve" x="445.596" y="99.0908" fill="black" font-size="16.7816" font-family="Helvetica">206.8 </text>
<text xml:space="preserve" x="436.662" y="99.0908" fill="black" font-size="16.7816" font-family="Times">&#8722;</text>
<text xml:space="preserve" x="430.976" y="99.0908" fill="black" font-size="16.7816" font-family="Helvetica"> </text>
<path d="M240.194,347.224l 3.29512, -2.2064" fill="none" stroke="#ff0000" stroke-width="5"/>
<path d="M243.489,345.017l 4.48907, -3.00586l 4.48907, -3.00586l 4.48907, -3.00586l 4.48907, -3.00586l 4.48907, -3.00586l 4.48907, -3.00586l 4.48907, -3.00586l 4.48907, -3.00586l 4.48907, -3.00586l 4.48907, -3.00586l 4.48907, -3.00586l 4.48907,
 -3.00586l 4.48907, -3.00586l 4.48907, -3.00586l 4.48907, -3.00586l 4.48907, -3.00586l 4.48907, -3.00586l 4.48907, -3.00586l 4.48907, -3.00586l 4.48907, -3.00586l 4.48907, -3.00586l 4.48907, -3.00586l 4.48907, -3.00586l 4.48907, -3.00586l 4.48907,
 -3.00586l 4.48907, -3.00586l 4.48907, -3.00586l 4.48907, -3.00586l 4.48907, -3.00586l 4.48907, -3.00586l 4.48907, -3.00586l 4.48907, -3.00586l 4.48907, -3.00586l 4.48907, -3.00586l 4.48907, -3.00586l 4.48907, -3.00586l 4.48907, -3.00586l 4.48907,
 -3.00586l 4.48907, -3.00586l 4.48907, -3.00586l 4.48907, -3.00586l 4.48907, -3.00586l 4.48907, -3.00586l 4.48907, -3.00586l 4.48907, -3.00586l 4.48907, -3.00586l 4.48907, -3.00586l 4.48907, -3.00586" fill="none" stroke="#ff0000" stroke-width="5"/>
<path d="M458.964,200.736l 4.48907, -3.00586l 4.48907, -3.00586l 4.48907, -3.00586l 4.48907, -3.00586l 4.48907, -3.00586l 4.48907, -3.00586l 4.48907, -3.00586l 4.48907, -3.00586l 4.48907, -3.00586l 4.48907, -3.00586" fill="none" stroke="#ff0000"
 stroke-width="5"/>
<text xml:space="preserve" x="191.372" y="18.681" fill="black" font-size="17.0471" font-family="Helvetica">Calibration Data at 27kV</text></svg>
