<?xml version="1.0" standalone="no"?>
<svg width="567.429" height="386.304" viewBox="0 0 567.429 386.304" xmlns="http://www.w3.org/2000/svg" shape-rendering="crispEdges">
<title>
../outputs/linefits/images/svg/30kV.svg
</title>
<desc>
Creator: ROOT Version 6.26/06
CreationDate: Sun May  7 17:16:07 2023</desc>
<defs>
</defs>
<rect x="0.5" y="0" width="566.929" height="385.804" fill="white"/>
<rect x="57.1929" y="38.5804" width="453.543" height="308.643" fill="white"/>
<rect x="57.1929" y="38.5804" width="453.543" height="308.643" fill="none" stroke="black"/>
<rect x="57.1929" y="38.5804" width="453.543" height="308.643" fill="white"/>
<rect x="57.1929" y="38.5804" width="453.543" height="308.643" fill="none" stroke="black"/>
<path d="M57.1929,347.224h 453.543" fill="none" stroke="black"/>
<path d="M96.9444,337.964v 9.2593" fill="none" stroke="black"/>
<path d="M108.61,342.594v 4.62965" fill="none" stroke="black"/>
<path d="M120.275,342.594v 4.62965" fill="none" stroke="black"/>
<path d="M131.941,342.594v 4.62965" fill="none" stroke="black"/>
<path d="M143.606,342.594v 4.62965" fill="none" stroke="black"/>
<path d="M155.272,337.964v 9.2593" fill="none" stroke="black"/>
<path d="M166.938,342.594v 4.62965" fill="none" stroke="black"/>
<path d="M178.603,342.594v 4.62965" fill="none" stroke="black"/>
<path d="M190.269,342.594v 4.62965" fill="none" stroke="black"/>
<path d="M201.934,342.594v 4.62965" fill="none" stroke="black"/>
<path d="M213.6,337.964v 9.2593" fill="none" stroke="black"/>
<path d="M225.265,342.594v 4.62965" fill="none" stroke="black"/>
<path d="M236.931,342.594v 4.62965" fill="none" stroke="black"/>
<path d="M248.596,342.594v 4.62965" fill="none" stroke="black"/>
<path d="M260.262,342.594v 4.62965" fill="none" stroke="black"/>
<path d="M271.927,337.964v 9.2593" fill="none" stroke="black"/>
<path d="M283.593,342.594v 4.62965" fill="none" stroke="black"/>
<path d="M295.258,342.594v 4.62965" fill="none" stroke="black"/>
<path d="M306.924,342.594v 4.62965" fill="none" stroke="black"/>
<path d="M318.589,342.594v 4.62965" fill="none" stroke="black"/>
<path d="M330.255,337.964v 9.2593" fill="none" stroke="black"/>
<path d="M341.92,342.594v 4.62965" fill="none" stroke="black"/>
<path d="M353.586,342.594v 4.62965" fill="none" stroke="black"/>
<path d="M365.251,342.594v 4.62965" fill="none" stroke="black"/>
<path d="M376.917,342.594v 4.62965" fill="none" stroke="black"/>
<path d="M388.582,337.964v 9.2593" fill="none" stroke="black"/>
<path d="M400.248,342.594v 4.62965" fill="none" stroke="black"/>
<path d="M411.913,342.594v 4.62965" fill="none" stroke="black"/>
<path d="M423.579,342.594v 4.62965" fill="none" stroke="black"/>
<path d="M435.245,342.594v 4.62965" fill="none" stroke="black"/>
<path d="M446.91,337.964v 9.2593" fill="none" stroke="black"/>
<path d="M458.576,342.594v 4.62965" fill="none" stroke="black"/>
<path d="M470.241,342.594v 4.62965" fill="none" stroke="black"/>
<path d="M481.907,342.594v 4.62965" fill="none" stroke="black"/>
<path d="M493.572,342.594v 4.62965" fill="none" stroke="black"/>
<path d="M505.238,337.964v 9.2593" fill="none" stroke="black"/>
<path d="M96.9444,337.964v 9.2593" fill="none" stroke="black"/>
<path d="M85.2789,342.594v 4.62965" fill="none" stroke="black"/>
<path d="M73.6134,342.594v 4.62965" fill="none" stroke="black"/>
<path d="M61.9479,342.594v 4.62965" fill="none" stroke="black"/>
<path d="M505.238,337.964v 9.2593" fill="none" stroke="black"/>
<text xml:space="preserve" x="83.3464" y="359.813" fill="black" font-size="12.8882" font-family="Helvetica">0.02</text>
<text xml:space="preserve" x="141.826" y="359.813" fill="black" font-size="12.8882" font-family="Helvetica">0.03</text>
<text xml:space="preserve" x="200.306" y="359.813" fill="black" font-size="12.8882" font-family="Helvetica">0.04</text>
<text xml:space="preserve" x="258.786" y="359.813" fill="black" font-size="12.8882" font-family="Helvetica">0.05</text>
<text xml:space="preserve" x="316.453" y="359.813" fill="black" font-size="12.8882" font-family="Helvetica">0.06</text>
<text xml:space="preserve" x="374.933" y="359.813" fill="black" font-size="12.8882" font-family="Helvetica">0.07</text>
<text xml:space="preserve" x="433.413" y="359.813" fill="black" font-size="12.8882" font-family="Helvetica">0.08</text>
<text xml:space="preserve" x="491.893" y="359.813" fill="black" font-size="12.8882" font-family="Helvetica">0.09</text>
<text xml:space="preserve" x="412.295" y="372.809" fill="black" font-size="12.8882" font-family="Helvetica">Wavelength (nm)</text>
<path d="M57.1929,347.224v -308.643" fill="none" stroke="black"/>
<path d="M70.7992,308.148h -13.6063" fill="none" stroke="black"/>
<path d="M63.9961,297.572h -6.80315" fill="none" stroke="black"/>
<path d="M63.9961,286.997h -6.80315" fill="none" stroke="black"/>
<path d="M63.9961,276.421h -6.80315" fill="none" stroke="black"/>
<path d="M63.9961,265.846h -6.80315" fill="none" stroke="black"/>
<path d="M70.7992,255.271h -13.6063" fill="none" stroke="black"/>
<path d="M63.9961,244.695h -6.80315" fill="none" stroke="black"/>
<path d="M63.9961,234.12h -6.80315" fill="none" stroke="black"/>
<path d="M63.9961,223.544h -6.80315" fill="none" stroke="black"/>
<path d="M63.9961,212.969h -6.80315" fill="none" stroke="black"/>
<path d="M70.7992,202.394h -13.6063" fill="none" stroke="black"/>
<path d="M63.9961,191.818h -6.80315" fill="none" stroke="black"/>
<path d="M63.9961,181.243h -6.80315" fill="none" stroke="black"/>
<path d="M63.9961,170.667h -6.80315" fill="none" stroke="black"/>
<path d="M63.9961,160.092h -6.80315" fill="none" stroke="black"/>
<path d="M70.7992,149.516h -13.6063" fill="none" stroke="black"/>
<path d="M63.9961,138.941h -6.80315" fill="none" stroke="black"/>
<path d="M63.9961,128.366h -6.80315" fill="none" stroke="black"/>
<path d="M63.9961,117.79h -6.80315" fill="none" stroke="black"/>
<path d="M63.9961,107.215h -6.80315" fill="none" stroke="black"/>
<path d="M70.7992,96.6394h -13.6063" fill="none" stroke="black"/>
<path d="M63.9961,86.064h -6.80315" fill="none" stroke="black"/>
<path d="M63.9961,75.4886h -6.80315" fill="none" stroke="black"/>
<path d="M63.9961,64.9132h -6.80315" fill="none" stroke="black"/>
<path d="M63.9961,54.3378h -6.80315" fill="none" stroke="black"/>
<path d="M70.7992,43.7624h -13.6063" fill="none" stroke="black"/>
<path d="M70.7992,308.148h -13.6063" fill="none" stroke="black"/>
<path d="M63.9961,318.723h -6.80315" fill="none" stroke="black"/>
<path d="M63.9961,329.298h -6.80315" fill="none" stroke="black"/>
<path d="M63.9961,339.874h -6.80315" fill="none" stroke="black"/>
<path d="M70.7992,43.7624h -13.6063" fill="none" stroke="black"/>
<text xml:space="preserve" x="32.9888" y="312.704" fill="black" font-size="12.8882" font-family="Helvetica">100</text>
<text xml:space="preserve" x="32.9888" y="259.91" fill="black" font-size="12.8882" font-family="Helvetica">200</text>
<text xml:space="preserve" x="32.9888" y="207.116" fill="black" font-size="12.8882" font-family="Helvetica">300</text>
<text xml:space="preserve" x="32.9888" y="154.322" fill="black" font-size="12.8882" font-family="Helvetica">400</text>
<text xml:space="preserve" x="32.9888" y="100.715" fill="black" font-size="12.8882" font-family="Helvetica">500</text>
<text xml:space="preserve" x="32.9888" y="47.9209" fill="black" font-size="12.8882" font-family="Helvetica">600</text>
<g transform="rotate(-90,19.9933,108.025)">
<text xml:space="preserve" x="19.9933" y="108.025" fill="black" font-size="12.8882" font-family="Helvetica">Rate (imp/s)</text>
</g>
<path d="M135.563,138.412l 5.67702, 20.6221l 5.67654, 62.9237l 5.67604, 29.0824l 5.67553, 35.9564l 5.675, 20.6221l 5.67445, 12.6905l 5.67388, 14.2768l 5.6733, 1.58631l 5.6727, 1.58631l 5.67209, 3.70139l 5.67145, 2.11508l 5.6708, -0.528771l 5.67014,
 0.528771l 5.66945, 2.11508l 5.66875, -2.11508l 5.66804, 1.58631l 5.6673, -4.23016l 5.66655, 2.11508l 5.66578, -3.17262l 5.665, -6.34525h 5.6642l 5.66338, -6.34525l 5.66254, -1.58631l 5.66169, -3.70139l 5.66082, -2.11508l 5.65993, -4.23016l 5.65903,
 0.528771l 5.65811, 2.64385l 5.65717, -1.58631l 5.65622, -1.05754l 5.65524, -6.87402l 5.65426, -1.05754l 5.65325, -8.9891l 5.65223, 2.11508l 5.65119, -6.34525l 5.65014, -5.28771l 5.64906, -4.75893l 5.64798, -1.05754l 5.64687, -21.6796h 5.64575l
 5.64461, -8.9891l 5.64345, -34.8989l 5.64228, -22.7371l 5.64109, -22.2084l 5.63988, -2.64385l 5.63866, -22.7371l 5.63741, -81.4307l 5.63616, 56.5784l 5.63488, 140.653l 5.63359, 14.8056l 5.63228, -8.9891l 5.63096, 7.93156l 5.62962, 2.64385l 5.62826,
 -7.40279l 5.62688, -5.81648l 5.62549, 4.23016l 5.62408, -3.17262l 5.62266, -2.64385l 5.62121, 4.75893l 5.61976, 1.58631l 5.61828, -4.23016l 5.61679, 4.75893l 5.61528, -4.23016l 5.61375, 1.58631l 5.61221, -10.5754l 5.61065, 7.40279h 2.29465"
 fill="none" stroke="#0000ff" stroke-width="4"/>
<g fill="black">
<circle cx="135.563" cy="138.412" r="2.92399"/>
<circle cx="141.24" cy="159.034" r="2.92399"/>
<circle cx="146.916" cy="221.958" r="2.92399"/>
<circle cx="152.592" cy="251.04" r="2.92399"/>
<circle cx="158.268" cy="286.997" r="2.92399"/>
<circle cx="163.943" cy="307.619" r="2.92399"/>
<circle cx="169.617" cy="320.309" r="2.92399"/>
<circle cx="175.291" cy="334.586" r="2.92399"/>
<circle cx="180.964" cy="336.172" r="2.92399"/>
<circle cx="186.637" cy="337.759" r="2.92399"/>
<circle cx="192.309" cy="341.46" r="2.92399"/>
<circle cx="197.981" cy="343.575" r="2.92399"/>
<circle cx="203.651" cy="343.047" r="2.92399"/>
<circle cx="209.321" cy="343.575" r="2.92399"/>
<circle cx="214.991" cy="345.69" r="2.92399"/>
<circle cx="220.66" cy="343.575" r="2.92399"/>
<circle cx="226.328" cy="345.162" r="2.92399"/>
<circle cx="231.995" cy="340.931" r="2.92399"/>
<circle cx="237.662" cy="343.047" r="2.92399"/>
<circle cx="243.327" cy="339.874" r="2.92399"/>
<circle cx="248.992" cy="333.529" r="2.92399"/>
<circle cx="254.657" cy="333.529" r="2.92399"/>
<circle cx="260.32" cy="327.183" r="2.92399"/>
<circle cx="265.982" cy="325.597" r="2.92399"/>
<circle cx="271.644" cy="321.896" r="2.92399"/>
<circle cx="277.305" cy="319.781" r="2.92399"/>
<circle cx="282.965" cy="315.55" r="2.92399"/>
<circle cx="288.624" cy="316.079" r="2.92399"/>
<circle cx="294.282" cy="318.723" r="2.92399"/>
<circle cx="299.939" cy="317.137" r="2.92399"/>
<circle cx="305.595" cy="316.079" r="2.92399"/>
<circle cx="311.251" cy="309.205" r="2.92399"/>
<circle cx="316.905" cy="308.148" r="2.92399"/>
<circle cx="322.558" cy="299.159" r="2.92399"/>
<circle cx="328.21" cy="301.274" r="2.92399"/>
<circle cx="333.862" cy="294.928" r="2.92399"/>
<circle cx="339.512" cy="289.641" r="2.92399"/>
<circle cx="345.161" cy="284.882" r="2.92399"/>
<circle cx="350.809" cy="283.824" r="2.92399"/>
<circle cx="356.456" cy="262.145" r="2.92399"/>
<circle cx="362.101" cy="262.145" r="2.92399"/>
<circle cx="367.746" cy="253.156" r="2.92399"/>
<circle cx="373.389" cy="218.257" r="2.92399"/>
<circle cx="379.032" cy="195.52" r="2.92399"/>
<circle cx="384.673" cy="173.311" r="2.92399"/>
<circle cx="390.313" cy="170.667" r="2.92399"/>
<circle cx="395.951" cy="147.93" r="2.92399"/>
<circle cx="401.589" cy="66.4995" r="2.92399"/>
<circle cx="407.225" cy="123.078" r="2.92399"/>
<circle cx="412.86" cy="263.731" r="2.92399"/>
<circle cx="418.493" cy="278.536" r="2.92399"/>
<circle cx="424.126" cy="269.547" r="2.92399"/>
<circle cx="429.757" cy="277.479" r="2.92399"/>
<circle cx="435.386" cy="280.123" r="2.92399"/>
<circle cx="441.015" cy="272.72" r="2.92399"/>
<circle cx="446.641" cy="266.904" r="2.92399"/>
<circle cx="452.267" cy="271.134" r="2.92399"/>
<circle cx="457.891" cy="267.961" r="2.92399"/>
<circle cx="463.514" cy="265.317" r="2.92399"/>
<circle cx="469.135" cy="270.076" r="2.92399"/>
<circle cx="474.755" cy="271.662" r="2.92399"/>
<circle cx="480.373" cy="267.432" r="2.92399"/>
<circle cx="485.99" cy="272.191" r="2.92399"/>
<circle cx="491.605" cy="267.961" r="2.92399"/>
<circle cx="497.219" cy="269.547" r="2.92399"/>
<circle cx="502.831" cy="258.972" r="2.92399"/>
<circle cx="508.442" cy="266.375" r="2.92399"/>
</g>
<path d="M135.563,138.412h -3.25283e-07" fill="none" stroke="#0000ff"/>
<path d="M135.563,140.037v -3.24888" fill="none" stroke="#0000ff"/>
<path d="M135.563,138.412h 3.25283e-07" fill="none" stroke="#0000ff"/>
<path d="M135.563,140.037v -3.24888" fill="none" stroke="#0000ff"/>
<path d="M135.563,138.412v -4.85203" fill="none" stroke="#0000ff"/>
<path d="M133.938,133.56h 3.24888" fill="none" stroke="#0000ff"/>
<path d="M135.563,138.412v 4.85203" fill="none" stroke="#0000ff"/>
<path d="M133.938,143.264h 3.24888" fill="none" stroke="#0000ff"/>
<path d="M141.24,159.034h -3.25256e-07" fill="none" stroke="#0000ff"/>
<path d="M141.24,160.659v -3.24888" fill="none" stroke="#0000ff"/>
<path d="M141.24,159.034h 3.25256e-07" fill="none" stroke="#0000ff"/>
<path d="M141.24,160.659v -3.24888" fill="none" stroke="#0000ff"/>
<path d="M141.24,159.034v -4.62183" fill="none" stroke="#0000ff"/>
<path d="M139.615,154.413h 3.24888" fill="none" stroke="#0000ff"/>
<path d="M141.24,159.034v 4.62183" fill="none" stroke="#0000ff"/>
<path d="M139.615,163.656h 3.24888" fill="none" stroke="#0000ff"/>
<path d="M146.916,221.958h -3.25228e-07" fill="none" stroke="#0000ff"/>
<path d="M146.916,223.582v -3.24888" fill="none" stroke="#0000ff"/>
<path d="M146.916,221.958h 3.25228e-07" fill="none" stroke="#0000ff"/>
<path d="M146.916,223.582v -3.24888" fill="none" stroke="#0000ff"/>
<path d="M146.916,221.958v -3.83495" fill="none" stroke="#0000ff"/>
<path d="M145.292,218.123h 3.24888" fill="none" stroke="#0000ff"/>
<path d="M146.916,221.958v 3.83495" fill="none" stroke="#0000ff"/>
<path d="M145.292,225.793h 3.24888" fill="none" stroke="#0000ff"/>
<path d="M152.592,251.04h -3.25199e-07" fill="none" stroke="#0000ff"/>
<path d="M152.592,252.665v -3.24888" fill="none" stroke="#0000ff"/>
<path d="M152.592,251.04h 3.25199e-07" fill="none" stroke="#0000ff"/>
<path d="M152.592,252.665v -3.24888" fill="none" stroke="#0000ff"/>
<path d="M152.592,251.04v -3.41047" fill="none" stroke="#0000ff"/>
<path d="M150.968,247.63h 3.24888" fill="none" stroke="#0000ff"/>
<path d="M152.592,251.04v 3.41047" fill="none" stroke="#0000ff"/>
<path d="M150.968,254.451h 3.24888" fill="none" stroke="#0000ff"/>
<path d="M158.268,286.997h -3.25169e-07" fill="none" stroke="#0000ff"/>
<path d="M158.268,288.621v -3.24888" fill="none" stroke="#0000ff"/>
<path d="M158.268,286.997h 3.25169e-07" fill="none" stroke="#0000ff"/>
<path d="M158.268,288.621v -3.24888" fill="none" stroke="#0000ff"/>
<path d="M158.268,286.997v -2.79799" fill="none" stroke="#0000ff"/>
<path d="M156.643,284.199h 3.24888" fill="none" stroke="#0000ff"/>
<path d="M158.268,286.997v 2.79799" fill="none" stroke="#0000ff"/>
<path d="M156.643,289.795h 3.24888" fill="none" stroke="#0000ff"/>
<path d="M163.943,307.619h -3.25138e-07" fill="none" stroke="#0000ff"/>
<path d="M163.943,309.243v -3.24888" fill="none" stroke="#0000ff"/>
<path d="M163.943,307.619h 3.25138e-07" fill="none" stroke="#0000ff"/>
<path d="M163.943,309.243v -3.24888" fill="none" stroke="#0000ff"/>
<path d="M163.943,307.619v -2.37653" fill="none" stroke="#0000ff"/>
<path d="M162.318,305.242h 3.24888" fill="none" stroke="#0000ff"/>
<path d="M163.943,307.619v 2.37653" fill="none" stroke="#0000ff"/>
<path d="M162.318,309.995h 3.24888" fill="none" stroke="#0000ff"/>
<path d="M169.617,320.309h -3.25106e-07" fill="none" stroke="#0000ff"/>
<path d="M169.617,321.934v -3.24888" fill="none" stroke="#0000ff"/>
<path d="M169.617,320.309h 3.25106e-07" fill="none" stroke="#0000ff"/>
<path d="M169.617,321.934v -3.24888" fill="none" stroke="#0000ff"/>
<path d="M169.617,320.309v -2.07505" fill="none" stroke="#0000ff"/>
<path d="M167.993,318.234h 3.24888" fill="none" stroke="#0000ff"/>
<path d="M169.617,320.309v 2.07505" fill="none" stroke="#0000ff"/>
<path d="M167.993,322.384h 3.24888" fill="none" stroke="#0000ff"/>
<path d="M175.291,334.586h -3.25073e-07" fill="none" stroke="#0000ff"/>
<path d="M175.291,336.211v -3.24888" fill="none" stroke="#0000ff"/>
<path d="M175.291,334.586h 3.25073e-07" fill="none" stroke="#0000ff"/>
<path d="M175.291,336.211v -3.24888" fill="none" stroke="#0000ff"/>
<path d="M175.291,334.586v -1.67212" fill="none" stroke="#0000ff"/>
<path d="M173.667,332.914h 3.24888" fill="none" stroke="#0000ff"/>
<path d="M175.291,334.586v 1.67212" fill="none" stroke="#0000ff"/>
<path d="M173.667,336.258h 3.24888" fill="none" stroke="#0000ff"/>
<path d="M180.964,336.172h -3.25039e-07" fill="none" stroke="#0000ff"/>
<path d="M180.964,337.797v -3.24888" fill="none" stroke="#0000ff"/>
<path d="M180.964,336.172h 3.25039e-07" fill="none" stroke="#0000ff"/>
<path d="M180.964,337.797v -3.24888" fill="none" stroke="#0000ff"/>
<path d="M180.964,336.172v -1.62118" fill="none" stroke="#0000ff"/>
<path d="M179.34,334.551h 3.24888" fill="none" stroke="#0000ff"/>
<path d="M180.964,336.172v 1.62118" fill="none" stroke="#0000ff"/>
<path d="M179.34,337.794h 3.24888" fill="none" stroke="#0000ff"/>
<path d="M186.637,337.759h -3.25004e-07" fill="none" stroke="#0000ff"/>
<path d="M186.637,339.383v -3.24888" fill="none" stroke="#0000ff"/>
<path d="M186.637,337.759h 3.25004e-07" fill="none" stroke="#0000ff"/>
<path d="M186.637,339.383v -3.24888" fill="none" stroke="#0000ff"/>
<path d="M186.637,337.759v -1.56859" fill="none" stroke="#0000ff"/>
<path d="M185.013,336.19h 3.24888" fill="none" stroke="#0000ff"/>
<path d="M186.637,337.759v 1.56859" fill="none" stroke="#0000ff"/>
<path d="M185.013,339.327h 3.24888" fill="none" stroke="#0000ff"/>
<path d="M192.309,341.46h -3.24969e-07" fill="none" stroke="#0000ff"/>
<path d="M192.309,343.085v -3.24888" fill="none" stroke="#0000ff"/>
<path d="M192.309,341.46h 3.24969e-07" fill="none" stroke="#0000ff"/>
<path d="M192.309,343.085v -3.24888" fill="none" stroke="#0000ff"/>
<path d="M192.309,341.46v -1.43841" fill="none" stroke="#0000ff"/>
<path d="M190.685,340.022h 3.24888" fill="none" stroke="#0000ff"/>
<path d="M192.309,341.46v 1.43841" fill="none" stroke="#0000ff"/>
<path d="M190.685,342.899h 3.24888" fill="none" stroke="#0000ff"/>
<path d="M197.981,343.575h -3.24932e-07" fill="none" stroke="#0000ff"/>
<path d="M197.981,345.2v -3.24888" fill="none" stroke="#0000ff"/>
<path d="M197.981,343.575h 3.24932e-07" fill="none" stroke="#0000ff"/>
<path d="M197.981,345.2v -3.24888" fill="none" stroke="#0000ff"/>
<path d="M197.981,343.575v -1.35844" fill="none" stroke="#0000ff"/>
<path d="M196.356,342.217h 3.24888" fill="none" stroke="#0000ff"/>
<path d="M197.981,343.575v 1.35844" fill="none" stroke="#0000ff"/>
<path d="M196.356,344.934h 3.24888" fill="none" stroke="#0000ff"/>
<path d="M203.651,343.047h -3.24894e-07" fill="none" stroke="#0000ff"/>
<path d="M203.651,344.671v -3.24888" fill="none" stroke="#0000ff"/>
<path d="M203.651,343.047h 3.24894e-07" fill="none" stroke="#0000ff"/>
<path d="M203.651,344.671v -3.24888" fill="none" stroke="#0000ff"/>
<path d="M203.651,343.047v -1.37886" fill="none" stroke="#0000ff"/>
<path d="M202.027,341.668h 3.24888" fill="none" stroke="#0000ff"/>
<path d="M203.651,343.047v 1.37886" fill="none" stroke="#0000ff"/>
<path d="M202.027,344.425h 3.24888" fill="none" stroke="#0000ff"/>
<path d="M209.321,343.575h -3.24856e-07" fill="none" stroke="#0000ff"/>
<path d="M209.321,345.2v -3.24888" fill="none" stroke="#0000ff"/>
<path d="M209.321,343.575h 3.24856e-07" fill="none" stroke="#0000ff"/>
<path d="M209.321,345.2v -3.24888" fill="none" stroke="#0000ff"/>
<path d="M209.321,343.575v -1.35844" fill="none" stroke="#0000ff"/>
<path d="M207.697,342.217h 3.24888" fill="none" stroke="#0000ff"/>
<path d="M209.321,343.575v 1.35844" fill="none" stroke="#0000ff"/>
<path d="M207.697,344.934h 3.24888" fill="none" stroke="#0000ff"/>
<path d="M214.991,345.69h -3.24816e-07" fill="none" stroke="#0000ff"/>
<path d="M214.991,347.224v -3.15787" fill="none" stroke="#0000ff"/>
<path d="M214.991,345.69h 3.24816e-07" fill="none" stroke="#0000ff"/>
<path d="M214.991,347.224v -3.15787" fill="none" stroke="#0000ff"/>
<path d="M214.991,345.69v -1.27345" fill="none" stroke="#0000ff"/>
<path d="M213.367,344.417h 3.24888" fill="none" stroke="#0000ff"/>
<path d="M214.991,345.69v 1.27345" fill="none" stroke="#0000ff"/>
<path d="M213.367,346.964h 3.24888" fill="none" stroke="#0000ff"/>
<path d="M220.66,343.575h -3.24775e-07" fill="none" stroke="#0000ff"/>
<path d="M220.66,345.2v -3.24888" fill="none" stroke="#0000ff"/>
<path d="M220.66,343.575h 3.24775e-07" fill="none" stroke="#0000ff"/>
<path d="M220.66,345.2v -3.24888" fill="none" stroke="#0000ff"/>
<path d="M220.66,343.575v -1.35844" fill="none" stroke="#0000ff"/>
<path d="M219.035,342.217h 3.24888" fill="none" stroke="#0000ff"/>
<path d="M220.66,343.575v 1.35844" fill="none" stroke="#0000ff"/>
<path d="M219.035,344.934h 3.24888" fill="none" stroke="#0000ff"/>
<path d="M226.328,345.162h -3.24734e-07" fill="none" stroke="#0000ff"/>
<path d="M226.328,346.786v -3.24888" fill="none" stroke="#0000ff"/>
<path d="M226.328,345.162h 3.24734e-07" fill="none" stroke="#0000ff"/>
<path d="M226.328,346.786v -3.24888" fill="none" stroke="#0000ff"/>
<path d="M226.328,345.162v -1.29522" fill="none" stroke="#0000ff"/>
<path d="M224.703,343.866h 3.24888" fill="none" stroke="#0000ff"/>
<path d="M226.328,345.162v 1.29522" fill="none" stroke="#0000ff"/>
<path d="M224.703,346.457h 3.24888" fill="none" stroke="#0000ff"/>
<path d="M231.995,340.931h -3.24691e-07" fill="none" stroke="#0000ff"/>
<path d="M231.995,342.556v -3.24888" fill="none" stroke="#0000ff"/>
<path d="M231.995,340.931h 3.24691e-07" fill="none" stroke="#0000ff"/>
<path d="M231.995,342.556v -3.24888" fill="none" stroke="#0000ff"/>
<path d="M231.995,340.931v -1.45772" fill="none" stroke="#0000ff"/>
<path d="M230.371,339.474h 3.24888" fill="none" stroke="#0000ff"/>
<path d="M231.995,340.931v 1.45772" fill="none" stroke="#0000ff"/>
<path d="M230.371,342.389h 3.24888" fill="none" stroke="#0000ff"/>
<path d="M237.662,343.047h -3.24648e-07" fill="none" stroke="#0000ff"/>
<path d="M237.662,344.671v -3.24888" fill="none" stroke="#0000ff"/>
<path d="M237.662,343.047h 3.24648e-07" fill="none" stroke="#0000ff"/>
<path d="M237.662,344.671v -3.24888" fill="none" stroke="#0000ff"/>
<path d="M237.662,343.047v -1.37886" fill="none" stroke="#0000ff"/>
<path d="M236.037,341.668h 3.24888" fill="none" stroke="#0000ff"/>
<path d="M237.662,343.047v 1.37886" fill="none" stroke="#0000ff"/>
<path d="M236.037,344.425h 3.24888" fill="none" stroke="#0000ff"/>
<path d="M243.327,339.874h -3.24603e-07" fill="none" stroke="#0000ff"/>
<path d="M243.327,341.498v -3.24888" fill="none" stroke="#0000ff"/>
<path d="M243.327,339.874h 3.24603e-07" fill="none" stroke="#0000ff"/>
<path d="M243.327,341.498v -3.24888" fill="none" stroke="#0000ff"/>
<path d="M243.327,339.874v -1.49559" fill="none" stroke="#0000ff"/>
<path d="M241.703,338.378h 3.24888" fill="none" stroke="#0000ff"/>
<path d="M243.327,339.874v 1.49559" fill="none" stroke="#0000ff"/>
<path d="M241.703,341.369h 3.24888" fill="none" stroke="#0000ff"/>
<path d="M248.992,333.529h -3.24558e-07" fill="none" stroke="#0000ff"/>
<path d="M248.992,335.153v -3.24888" fill="none" stroke="#0000ff"/>
<path d="M248.992,333.529h 3.24558e-07" fill="none" stroke="#0000ff"/>
<path d="M248.992,335.153v -3.24888" fill="none" stroke="#0000ff"/>
<path d="M248.992,333.529v -1.70523" fill="none" stroke="#0000ff"/>
<path d="M247.368,331.823h 3.24888" fill="none" stroke="#0000ff"/>
<path d="M248.992,333.529v 1.70523" fill="none" stroke="#0000ff"/>
<path d="M247.368,335.234h 3.24888" fill="none" stroke="#0000ff"/>
<path d="M254.657,333.529h -3.24511e-07" fill="none" stroke="#0000ff"/>
<path d="M254.657,335.153v -3.24888" fill="none" stroke="#0000ff"/>
<path d="M254.657,333.529h 3.24511e-07" fill="none" stroke="#0000ff"/>
<path d="M254.657,335.153v -3.24888" fill="none" stroke="#0000ff"/>
<path d="M254.657,333.529v -1.70523" fill="none" stroke="#0000ff"/>
<path d="M253.032,331.823h 3.24888" fill="none" stroke="#0000ff"/>
<path d="M254.657,333.529v 1.70523" fill="none" stroke="#0000ff"/>
<path d="M253.032,335.234h 3.24888" fill="none" stroke="#0000ff"/>
<path d="M260.32,327.183h -3.24464e-07" fill="none" stroke="#0000ff"/>
<path d="M260.32,328.808v -3.24888" fill="none" stroke="#0000ff"/>
<path d="M260.32,327.183h 3.24464e-07" fill="none" stroke="#0000ff"/>
<path d="M260.32,328.808v -3.24888" fill="none" stroke="#0000ff"/>
<path d="M260.32,327.183v -1.89179" fill="none" stroke="#0000ff"/>
<path d="M258.695,325.292h 3.24888" fill="none" stroke="#0000ff"/>
<path d="M260.32,327.183v 1.89179" fill="none" stroke="#0000ff"/>
<path d="M258.695,329.075h 3.24888" fill="none" stroke="#0000ff"/>
<path d="M265.982,325.597h -3.24415e-07" fill="none" stroke="#0000ff"/>
<path d="M265.982,327.222v -3.24888" fill="none" stroke="#0000ff"/>
<path d="M265.982,325.597h 3.24415e-07" fill="none" stroke="#0000ff"/>
<path d="M265.982,327.222v -3.24888" fill="none" stroke="#0000ff"/>
<path d="M265.982,325.597v -1.93562" fill="none" stroke="#0000ff"/>
<path d="M264.358,323.661h 3.24888" fill="none" stroke="#0000ff"/>
<path d="M265.982,325.597v 1.93562" fill="none" stroke="#0000ff"/>
<path d="M264.358,327.533h 3.24888" fill="none" stroke="#0000ff"/>
<path d="M271.644,321.896h -3.24366e-07" fill="none" stroke="#0000ff"/>
<path d="M271.644,323.52v -3.24888" fill="none" stroke="#0000ff"/>
<path d="M271.644,321.896h 3.24366e-07" fill="none" stroke="#0000ff"/>
<path d="M271.644,323.52v -3.24888" fill="none" stroke="#0000ff"/>
<path d="M271.644,321.896v -2.03422" fill="none" stroke="#0000ff"/>
<path d="M270.02,319.861h 3.24888" fill="none" stroke="#0000ff"/>
<path d="M271.644,321.896v 2.03422" fill="none" stroke="#0000ff"/>
<path d="M270.02,323.93h 3.24888" fill="none" stroke="#0000ff"/>
<path d="M277.305,319.781h -3.24316e-07" fill="none" stroke="#0000ff"/>
<path d="M277.305,321.405v -3.24888" fill="none" stroke="#0000ff"/>
<path d="M277.305,319.781h 3.24316e-07" fill="none" stroke="#0000ff"/>
<path d="M277.305,321.405v -3.24888" fill="none" stroke="#0000ff"/>
<path d="M277.305,319.781v -2.08848" fill="none" stroke="#0000ff"/>
<path d="M275.681,317.692h 3.24888" fill="none" stroke="#0000ff"/>
<path d="M277.305,319.781v 2.08848" fill="none" stroke="#0000ff"/>
<path d="M275.681,321.869h 3.24888" fill="none" stroke="#0000ff"/>
<path d="M282.965,315.55h -3.24264e-07" fill="none" stroke="#0000ff"/>
<path d="M282.965,317.175v -3.24888" fill="none" stroke="#0000ff"/>
<path d="M282.965,315.55h 3.24264e-07" fill="none" stroke="#0000ff"/>
<path d="M282.965,317.175v -3.24888" fill="none" stroke="#0000ff"/>
<path d="M282.965,315.55v -2.19296" fill="none" stroke="#0000ff"/>
<path d="M281.34,313.357h 3.24888" fill="none" stroke="#0000ff"/>
<path d="M282.965,315.55v 2.19296" fill="none" stroke="#0000ff"/>
<path d="M281.34,317.743h 3.24888" fill="none" stroke="#0000ff"/>
<path d="M288.624,316.079h -3.24212e-07" fill="none" stroke="#0000ff"/>
<path d="M288.624,317.704v -3.24888" fill="none" stroke="#0000ff"/>
<path d="M288.624,316.079h 3.24212e-07" fill="none" stroke="#0000ff"/>
<path d="M288.624,317.704v -3.24888" fill="none" stroke="#0000ff"/>
<path d="M288.624,316.079v -2.18018" fill="none" stroke="#0000ff"/>
<path d="M287,313.899h 3.24888" fill="none" stroke="#0000ff"/>
<path d="M288.624,316.079v 2.18018" fill="none" stroke="#0000ff"/>
<path d="M287,318.259h 3.24888" fill="none" stroke="#0000ff"/>
<path d="M294.282,318.723h -3.24159e-07" fill="none" stroke="#0000ff"/>
<path d="M294.282,320.348v -3.24888" fill="none" stroke="#0000ff"/>
<path d="M294.282,318.723h 3.24159e-07" fill="none" stroke="#0000ff"/>
<path d="M294.282,320.348v -3.24888" fill="none" stroke="#0000ff"/>
<path d="M294.282,318.723v -2.11508" fill="none" stroke="#0000ff"/>
<path d="M292.658,316.608h 3.24888" fill="none" stroke="#0000ff"/>
<path d="M294.282,318.723v 2.11508" fill="none" stroke="#0000ff"/>
<path d="M292.658,320.838h 3.24888" fill="none" stroke="#0000ff"/>
<path d="M299.939,317.137h -3.24105e-07" fill="none" stroke="#0000ff"/>
<path d="M299.939,318.761v -3.24888" fill="none" stroke="#0000ff"/>
<path d="M299.939,317.137h 3.24105e-07" fill="none" stroke="#0000ff"/>
<path d="M299.939,318.761v -3.24888" fill="none" stroke="#0000ff"/>
<path d="M299.939,317.137v -2.15438" fill="none" stroke="#0000ff"/>
<path d="M298.315,314.982h 3.24888" fill="none" stroke="#0000ff"/>
<path d="M299.939,317.137v 2.15438" fill="none" stroke="#0000ff"/>
<path d="M298.315,319.291h 3.24888" fill="none" stroke="#0000ff"/>
<path d="M305.595,316.079h -3.2405e-07" fill="none" stroke="#0000ff"/>
<path d="M305.595,317.704v -3.24888" fill="none" stroke="#0000ff"/>
<path d="M305.595,316.079h 3.2405e-07" fill="none" stroke="#0000ff"/>
<path d="M305.595,317.704v -3.24888" fill="none" stroke="#0000ff"/>
<path d="M305.595,316.079v -2.18018" fill="none" stroke="#0000ff"/>
<path d="M303.971,313.899h 3.24888" fill="none" stroke="#0000ff"/>
<path d="M305.595,316.079v 2.18018" fill="none" stroke="#0000ff"/>
<path d="M303.971,318.259h 3.24888" fill="none" stroke="#0000ff"/>
<path d="M311.251,309.205h -3.23994e-07" fill="none" stroke="#0000ff"/>
<path d="M311.251,310.83v -3.24888" fill="none" stroke="#0000ff"/>
<path d="M311.251,309.205h 3.23993e-07" fill="none" stroke="#0000ff"/>
<path d="M311.251,310.83v -3.24888" fill="none" stroke="#0000ff"/>
<path d="M311.251,309.205v -2.34097" fill="none" stroke="#0000ff"/>
<path d="M309.626,306.864h 3.24888" fill="none" stroke="#0000ff"/>
<path d="M311.251,309.205v 2.34097" fill="none" stroke="#0000ff"/>
<path d="M309.626,311.546h 3.24888" fill="none" stroke="#0000ff"/>
<path d="M316.905,308.148h -3.23937e-07" fill="none" stroke="#0000ff"/>
<path d="M316.905,309.772v -3.24888" fill="none" stroke="#0000ff"/>
<path d="M316.905,308.148h 3.23936e-07" fill="none" stroke="#0000ff"/>
<path d="M316.905,309.772v -3.24888" fill="none" stroke="#0000ff"/>
<path d="M316.905,308.148v -2.36473" fill="none" stroke="#0000ff"/>
<path d="M315.28,305.783h 3.24888" fill="none" stroke="#0000ff"/>
<path d="M316.905,308.148v 2.36473" fill="none" stroke="#0000ff"/>
<path d="M315.28,310.512h 3.24888" fill="none" stroke="#0000ff"/>
<path d="M322.558,299.159h -3.23878e-07" fill="none" stroke="#0000ff"/>
<path d="M322.558,300.783v -3.24888" fill="none" stroke="#0000ff"/>
<path d="M322.558,299.159h 3.23878e-07" fill="none" stroke="#0000ff"/>
<path d="M322.558,300.783v -3.24888" fill="none" stroke="#0000ff"/>
<path d="M322.558,299.159v -2.55785" fill="none" stroke="#0000ff"/>
<path d="M320.934,296.601h 3.24888" fill="none" stroke="#0000ff"/>
<path d="M322.558,299.159v 2.55785" fill="none" stroke="#0000ff"/>
<path d="M320.934,301.716h 3.24888" fill="none" stroke="#0000ff"/>
<path d="M328.21,301.274h -3.23819e-07" fill="none" stroke="#0000ff"/>
<path d="M328.21,302.898v -3.24888" fill="none" stroke="#0000ff"/>
<path d="M328.21,301.274h 3.23819e-07" fill="none" stroke="#0000ff"/>
<path d="M328.21,302.898v -3.24888" fill="none" stroke="#0000ff"/>
<path d="M328.21,301.274v -2.51375" fill="none" stroke="#0000ff"/>
<path d="M326.586,298.76h 3.24888" fill="none" stroke="#0000ff"/>
<path d="M328.21,301.274v 2.51375" fill="none" stroke="#0000ff"/>
<path d="M326.586,303.787h 3.24888" fill="none" stroke="#0000ff"/>
<path d="M333.862,294.928h -3.23759e-07" fill="none" stroke="#0000ff"/>
<path d="M333.862,296.553v -3.24888" fill="none" stroke="#0000ff"/>
<path d="M333.862,294.928h 3.23759e-07" fill="none" stroke="#0000ff"/>
<path d="M333.862,296.553v -3.24888" fill="none" stroke="#0000ff"/>
<path d="M333.862,294.928v -2.64385" fill="none" stroke="#0000ff"/>
<path d="M332.237,292.285h 3.24888" fill="none" stroke="#0000ff"/>
<path d="M333.862,294.928v 2.64385" fill="none" stroke="#0000ff"/>
<path d="M332.237,297.572h 3.24888" fill="none" stroke="#0000ff"/>
<path d="M339.512,289.641h -3.23698e-07" fill="none" stroke="#0000ff"/>
<path d="M339.512,291.265v -3.24888" fill="none" stroke="#0000ff"/>
<path d="M339.512,289.641h 3.23698e-07" fill="none" stroke="#0000ff"/>
<path d="M339.512,291.265v -3.24888" fill="none" stroke="#0000ff"/>
<path d="M339.512,289.641v -2.74757" fill="none" stroke="#0000ff"/>
<path d="M337.887,286.893h 3.24888" fill="none" stroke="#0000ff"/>
<path d="M339.512,289.641v 2.74757" fill="none" stroke="#0000ff"/>
<path d="M337.887,292.388h 3.24888" fill="none" stroke="#0000ff"/>
<path d="M345.161,284.882h -3.23637e-07" fill="none" stroke="#0000ff"/>
<path d="M345.161,286.506v -3.24888" fill="none" stroke="#0000ff"/>
<path d="M345.161,284.882h 3.23637e-07" fill="none" stroke="#0000ff"/>
<path d="M345.161,286.506v -3.24888" fill="none" stroke="#0000ff"/>
<path d="M345.161,284.882v -2.83768" fill="none" stroke="#0000ff"/>
<path d="M343.536,282.044h 3.24888" fill="none" stroke="#0000ff"/>
<path d="M345.161,284.882v 2.83768" fill="none" stroke="#0000ff"/>
<path d="M343.536,287.719h 3.24888" fill="none" stroke="#0000ff"/>
<path d="M350.809,283.824h -3.23574e-07" fill="none" stroke="#0000ff"/>
<path d="M350.809,285.449v -3.24888" fill="none" stroke="#0000ff"/>
<path d="M350.809,283.824h 3.23574e-07" fill="none" stroke="#0000ff"/>
<path d="M350.809,285.449v -3.24888" fill="none" stroke="#0000ff"/>
<path d="M350.809,283.824v -2.85732" fill="none" stroke="#0000ff"/>
<path d="M349.184,280.967h 3.24888" fill="none" stroke="#0000ff"/>
<path d="M350.809,283.824v 2.85732" fill="none" stroke="#0000ff"/>
<path d="M349.184,286.682h 3.24888" fill="none" stroke="#0000ff"/>
<path d="M356.456,262.145h -3.2351e-07" fill="none" stroke="#0000ff"/>
<path d="M356.456,263.769v -3.24888" fill="none" stroke="#0000ff"/>
<path d="M356.456,262.145h 3.2351e-07" fill="none" stroke="#0000ff"/>
<path d="M356.456,263.769v -3.24888" fill="none" stroke="#0000ff"/>
<path d="M356.456,262.145v -3.23372" fill="none" stroke="#0000ff"/>
<path d="M354.831,258.911h 3.24888" fill="none" stroke="#0000ff"/>
<path d="M356.456,262.145v 3.23372" fill="none" stroke="#0000ff"/>
<path d="M354.831,265.378h 3.24888" fill="none" stroke="#0000ff"/>
<path d="M362.101,262.145h -3.23445e-07" fill="none" stroke="#0000ff"/>
<path d="M362.101,263.769v -3.24888" fill="none" stroke="#0000ff"/>
<path d="M362.101,262.145h 3.23445e-07" fill="none" stroke="#0000ff"/>
<path d="M362.101,263.769v -3.24888" fill="none" stroke="#0000ff"/>
<path d="M362.101,262.145v -3.23372" fill="none" stroke="#0000ff"/>
<path d="M360.477,258.911h 3.24888" fill="none" stroke="#0000ff"/>
<path d="M362.101,262.145v 3.23372" fill="none" stroke="#0000ff"/>
<path d="M360.477,265.378h 3.24888" fill="none" stroke="#0000ff"/>
<path d="M367.746,253.156h -3.23379e-07" fill="none" stroke="#0000ff"/>
<path d="M367.746,254.78v -3.24888" fill="none" stroke="#0000ff"/>
<path d="M367.746,253.156h 3.23379e-07" fill="none" stroke="#0000ff"/>
<path d="M367.746,254.78v -3.24888" fill="none" stroke="#0000ff"/>
<path d="M367.746,253.156v -3.37752" fill="none" stroke="#0000ff"/>
<path d="M366.122,249.778h 3.24888" fill="none" stroke="#0000ff"/>
<path d="M367.746,253.156v 3.37752" fill="none" stroke="#0000ff"/>
<path d="M366.122,256.533h 3.24888" fill="none" stroke="#0000ff"/>
<path d="M373.389,218.257h -3.23312e-07" fill="none" stroke="#0000ff"/>
<path d="M373.389,219.881v -3.24888" fill="none" stroke="#0000ff"/>
<path d="M373.389,218.257h 3.23312e-07" fill="none" stroke="#0000ff"/>
<path d="M373.389,219.881v -3.24888" fill="none" stroke="#0000ff"/>
<path d="M373.389,218.257v -3.88565" fill="none" stroke="#0000ff"/>
<path d="M371.765,214.371h 3.24888" fill="none" stroke="#0000ff"/>
<path d="M373.389,218.257v 3.88565" fill="none" stroke="#0000ff"/>
<path d="M371.765,222.142h 3.24888" fill="none" stroke="#0000ff"/>
<path d="M379.032,195.52h -3.23245e-07" fill="none" stroke="#0000ff"/>
<path d="M379.032,197.144v -3.24888" fill="none" stroke="#0000ff"/>
<path d="M379.032,195.52h 3.23245e-07" fill="none" stroke="#0000ff"/>
<path d="M379.032,197.144v -3.24888" fill="none" stroke="#0000ff"/>
<path d="M379.032,195.52v -4.18364" fill="none" stroke="#0000ff"/>
<path d="M377.407,191.336h 3.24888" fill="none" stroke="#0000ff"/>
<path d="M379.032,195.52v 4.18364" fill="none" stroke="#0000ff"/>
<path d="M377.407,199.703h 3.24888" fill="none" stroke="#0000ff"/>
<path d="M384.673,173.311h -3.23176e-07" fill="none" stroke="#0000ff"/>
<path d="M384.673,174.936v -3.24888" fill="none" stroke="#0000ff"/>
<path d="M384.673,173.311h 3.23176e-07" fill="none" stroke="#0000ff"/>
<path d="M384.673,174.936v -3.24888" fill="none" stroke="#0000ff"/>
<path d="M384.673,173.311v -4.4555" fill="none" stroke="#0000ff"/>
<path d="M383.048,168.856h 3.24888" fill="none" stroke="#0000ff"/>
<path d="M384.673,173.311v 4.4555" fill="none" stroke="#0000ff"/>
<path d="M383.048,177.767h 3.24888" fill="none" stroke="#0000ff"/>
<path d="M390.313,170.667h -3.23106e-07" fill="none" stroke="#0000ff"/>
<path d="M390.313,172.292v -3.24888" fill="none" stroke="#0000ff"/>
<path d="M390.313,170.667h 3.23106e-07" fill="none" stroke="#0000ff"/>
<path d="M390.313,172.292v -3.24888" fill="none" stroke="#0000ff"/>
<path d="M390.313,170.667v -4.48677" fill="none" stroke="#0000ff"/>
<path d="M388.688,166.181h 3.24888" fill="none" stroke="#0000ff"/>
<path d="M390.313,170.667v 4.48677" fill="none" stroke="#0000ff"/>
<path d="M388.688,175.154h 3.24888" fill="none" stroke="#0000ff"/>
<path d="M395.951,147.93h -3.23036e-07" fill="none" stroke="#0000ff"/>
<path d="M395.951,149.555v -3.24888" fill="none" stroke="#0000ff"/>
<path d="M395.951,147.93h 3.23036e-07" fill="none" stroke="#0000ff"/>
<path d="M395.951,149.555v -3.24888" fill="none" stroke="#0000ff"/>
<path d="M395.951,147.93v -4.74717" fill="none" stroke="#0000ff"/>
<path d="M394.327,143.183h 3.24888" fill="none" stroke="#0000ff"/>
<path d="M395.951,147.93v 4.74717" fill="none" stroke="#0000ff"/>
<path d="M394.327,152.677h 3.24888" fill="none" stroke="#0000ff"/>
<path d="M401.589,66.4995h -3.22964e-07" fill="none" stroke="#0000ff"/>
<path d="M401.589,68.1239v -3.24888" fill="none" stroke="#0000ff"/>
<path d="M401.589,66.4995h 3.22964e-07" fill="none" stroke="#0000ff"/>
<path d="M401.589,68.1239v -3.24888" fill="none" stroke="#0000ff"/>
<path d="M401.589,66.4995v -5.58097" fill="none" stroke="#0000ff"/>
<path d="M399.964,60.9185h 3.24888" fill="none" stroke="#0000ff"/>
<path d="M401.589,66.4995v 5.58097" fill="none" stroke="#0000ff"/>
<path d="M399.964,72.0805h 3.24888" fill="none" stroke="#0000ff"/>
<path d="M407.225,123.078h -3.22892e-07" fill="none" stroke="#0000ff"/>
<path d="M407.225,124.702v -3.24888" fill="none" stroke="#0000ff"/>
<path d="M407.225,123.078h 3.22892e-07" fill="none" stroke="#0000ff"/>
<path d="M407.225,124.702v -3.24888" fill="none" stroke="#0000ff"/>
<path d="M407.225,123.078v -5.01636" fill="none" stroke="#0000ff"/>
<path d="M405.6,118.062h 3.24888" fill="none" stroke="#0000ff"/>
<path d="M407.225,123.078v 5.01636" fill="none" stroke="#0000ff"/>
<path d="M405.6,128.094h 3.24888" fill="none" stroke="#0000ff"/>
<path d="M412.86,263.731h -3.22818e-07" fill="none" stroke="#0000ff"/>
<path d="M412.86,265.355v -3.24888" fill="none" stroke="#0000ff"/>
<path d="M412.86,263.731h 3.22818e-07" fill="none" stroke="#0000ff"/>
<path d="M412.86,265.355v -3.24888" fill="none" stroke="#0000ff"/>
<path d="M412.86,263.731v -3.20768" fill="none" stroke="#0000ff"/>
<path d="M411.235,260.523h 3.24888" fill="none" stroke="#0000ff"/>
<path d="M412.86,263.731v 3.20768" fill="none" stroke="#0000ff"/>
<path d="M411.235,266.939h 3.24888" fill="none" stroke="#0000ff"/>
<path d="M418.493,278.536h -3.22744e-07" fill="none" stroke="#0000ff"/>
<path d="M418.493,280.161v -3.24888" fill="none" stroke="#0000ff"/>
<path d="M418.493,278.536h 3.22744e-07" fill="none" stroke="#0000ff"/>
<path d="M418.493,280.161v -3.24888" fill="none" stroke="#0000ff"/>
<path d="M418.493,278.536v -2.95355" fill="none" stroke="#0000ff"/>
<path d="M416.869,275.583h 3.24888" fill="none" stroke="#0000ff"/>
<path d="M418.493,278.536v 2.95355" fill="none" stroke="#0000ff"/>
<path d="M416.869,281.49h 3.24888" fill="none" stroke="#0000ff"/>
<path d="M424.126,269.547h -3.22668e-07" fill="none" stroke="#0000ff"/>
<path d="M424.126,271.172v -3.24888" fill="none" stroke="#0000ff"/>
<path d="M424.126,269.547h 3.22668e-07" fill="none" stroke="#0000ff"/>
<path d="M424.126,271.172v -3.24888" fill="none" stroke="#0000ff"/>
<path d="M424.126,269.547v -3.11032" fill="none" stroke="#0000ff"/>
<path d="M422.501,266.437h 3.24888" fill="none" stroke="#0000ff"/>
<path d="M424.126,269.547v 3.11032" fill="none" stroke="#0000ff"/>
<path d="M422.501,272.658h 3.24888" fill="none" stroke="#0000ff"/>
<path d="M429.757,277.479h -3.22592e-07" fill="none" stroke="#0000ff"/>
<path d="M429.757,279.103v -3.24888" fill="none" stroke="#0000ff"/>
<path d="M429.757,277.479h 3.22592e-07" fill="none" stroke="#0000ff"/>
<path d="M429.757,279.103v -3.24888" fill="none" stroke="#0000ff"/>
<path d="M429.757,277.479v -2.97242" fill="none" stroke="#0000ff"/>
<path d="M428.132,274.507h 3.24888" fill="none" stroke="#0000ff"/>
<path d="M429.757,277.479v 2.97242" fill="none" stroke="#0000ff"/>
<path d="M428.132,280.451h 3.24888" fill="none" stroke="#0000ff"/>
<path d="M435.386,280.123h -3.22515e-07" fill="none" stroke="#0000ff"/>
<path d="M435.386,281.747v -3.24888" fill="none" stroke="#0000ff"/>
<path d="M435.386,280.123h 3.22515e-07" fill="none" stroke="#0000ff"/>
<path d="M435.386,281.747v -3.24888" fill="none" stroke="#0000ff"/>
<path d="M435.386,280.123v -2.92501" fill="none" stroke="#0000ff"/>
<path d="M433.762,277.198h 3.24888" fill="none" stroke="#0000ff"/>
<path d="M435.386,280.123v 2.92501" fill="none" stroke="#0000ff"/>
<path d="M433.762,283.048h 3.24888" fill="none" stroke="#0000ff"/>
<path d="M441.015,272.72h -3.22436e-07" fill="none" stroke="#0000ff"/>
<path d="M441.015,274.344v -3.24888" fill="none" stroke="#0000ff"/>
<path d="M441.015,272.72h 3.22436e-07" fill="none" stroke="#0000ff"/>
<path d="M441.015,274.344v -3.24888" fill="none" stroke="#0000ff"/>
<path d="M441.015,272.72v -3.05591" fill="none" stroke="#0000ff"/>
<path d="M439.39,269.664h 3.24888" fill="none" stroke="#0000ff"/>
<path d="M441.015,272.72v 3.05591" fill="none" stroke="#0000ff"/>
<path d="M439.39,275.776h 3.24888" fill="none" stroke="#0000ff"/>
<path d="M446.641,266.904h -3.22357e-07" fill="none" stroke="#0000ff"/>
<path d="M446.641,268.528v -3.24888" fill="none" stroke="#0000ff"/>
<path d="M446.641,266.904h 3.22357e-07" fill="none" stroke="#0000ff"/>
<path d="M446.641,268.528v -3.24888" fill="none" stroke="#0000ff"/>
<path d="M446.641,266.904v -3.15495" fill="none" stroke="#0000ff"/>
<path d="M445.017,263.749h 3.24888" fill="none" stroke="#0000ff"/>
<path d="M446.641,266.904v 3.15495" fill="none" stroke="#0000ff"/>
<path d="M445.017,270.059h 3.24888" fill="none" stroke="#0000ff"/>
<path d="M452.267,271.134h -3.22277e-07" fill="none" stroke="#0000ff"/>
<path d="M452.267,272.758v -3.24888" fill="none" stroke="#0000ff"/>
<path d="M452.267,271.134h 3.22277e-07" fill="none" stroke="#0000ff"/>
<path d="M452.267,272.758v -3.24888" fill="none" stroke="#0000ff"/>
<path d="M452.267,271.134v -3.08324" fill="none" stroke="#0000ff"/>
<path d="M450.642,268.05h 3.24888" fill="none" stroke="#0000ff"/>
<path d="M452.267,271.134v 3.08324" fill="none" stroke="#0000ff"/>
<path d="M450.642,274.217h 3.24888" fill="none" stroke="#0000ff"/>
<path d="M457.891,267.961h -3.22196e-07" fill="none" stroke="#0000ff"/>
<path d="M457.891,269.586v -3.24888" fill="none" stroke="#0000ff"/>
<path d="M457.891,267.961h 3.22196e-07" fill="none" stroke="#0000ff"/>
<path d="M457.891,269.586v -3.24888" fill="none" stroke="#0000ff"/>
<path d="M457.891,267.961v -3.13717" fill="none" stroke="#0000ff"/>
<path d="M456.267,264.824h 3.24888" fill="none" stroke="#0000ff"/>
<path d="M457.891,267.961v 3.13717" fill="none" stroke="#0000ff"/>
<path d="M456.267,271.098h 3.24888" fill="none" stroke="#0000ff"/>
<path d="M463.514,265.317h -3.22113e-07" fill="none" stroke="#0000ff"/>
<path d="M463.514,266.942v -3.24888" fill="none" stroke="#0000ff"/>
<path d="M463.514,265.317h 3.22113e-07" fill="none" stroke="#0000ff"/>
<path d="M463.514,266.942v -3.24888" fill="none" stroke="#0000ff"/>
<path d="M463.514,265.317v -3.18142" fill="none" stroke="#0000ff"/>
<path d="M461.889,262.136h 3.24888" fill="none" stroke="#0000ff"/>
<path d="M463.514,265.317v 3.18142" fill="none" stroke="#0000ff"/>
<path d="M461.889,268.499h 3.24888" fill="none" stroke="#0000ff"/>
<path d="M469.135,270.076h -3.2203e-07" fill="none" stroke="#0000ff"/>
<path d="M469.135,271.701v -3.24888" fill="none" stroke="#0000ff"/>
<path d="M469.135,270.076h 3.2203e-07" fill="none" stroke="#0000ff"/>
<path d="M469.135,271.701v -3.24888" fill="none" stroke="#0000ff"/>
<path d="M469.135,270.076v -3.10132" fill="none" stroke="#0000ff"/>
<path d="M467.51,266.975h 3.24888" fill="none" stroke="#0000ff"/>
<path d="M469.135,270.076v 3.10132" fill="none" stroke="#0000ff"/>
<path d="M467.51,273.177h 3.24888" fill="none" stroke="#0000ff"/>
<path d="M474.755,271.662h -3.21946e-07" fill="none" stroke="#0000ff"/>
<path d="M474.755,273.287v -3.24888" fill="none" stroke="#0000ff"/>
<path d="M474.755,271.662h 3.21946e-07" fill="none" stroke="#0000ff"/>
<path d="M474.755,273.287v -3.24888" fill="none" stroke="#0000ff"/>
<path d="M474.755,271.662v -3.07415" fill="none" stroke="#0000ff"/>
<path d="M473.13,268.588h 3.24888" fill="none" stroke="#0000ff"/>
<path d="M474.755,271.662v 3.07415" fill="none" stroke="#0000ff"/>
<path d="M473.13,274.737h 3.24888" fill="none" stroke="#0000ff"/>
<path d="M480.373,267.432h -3.21861e-07" fill="none" stroke="#0000ff"/>
<path d="M480.373,269.057v -3.24888" fill="none" stroke="#0000ff"/>
<path d="M480.373,267.432h 3.21861e-07" fill="none" stroke="#0000ff"/>
<path d="M480.373,269.057v -3.24888" fill="none" stroke="#0000ff"/>
<path d="M480.373,267.432v -3.14607" fill="none" stroke="#0000ff"/>
<path d="M478.748,264.286h 3.24888" fill="none" stroke="#0000ff"/>
<path d="M480.373,267.432v 3.14607" fill="none" stroke="#0000ff"/>
<path d="M478.748,270.578h 3.24888" fill="none" stroke="#0000ff"/>
<path d="M485.99,272.191h -3.21775e-07" fill="none" stroke="#0000ff"/>
<path d="M485.99,273.816v -3.24888" fill="none" stroke="#0000ff"/>
<path d="M485.99,272.191h 3.21775e-07" fill="none" stroke="#0000ff"/>
<path d="M485.99,273.816v -3.24888" fill="none" stroke="#0000ff"/>
<path d="M485.99,272.191v -3.06505" fill="none" stroke="#0000ff"/>
<path d="M484.365,269.126h 3.24888" fill="none" stroke="#0000ff"/>
<path d="M485.99,272.191v 3.06505" fill="none" stroke="#0000ff"/>
<path d="M484.365,275.256h 3.24888" fill="none" stroke="#0000ff"/>
<path d="M491.605,267.961h -3.21688e-07" fill="none" stroke="#0000ff"/>
<path d="M491.605,269.586v -3.24888" fill="none" stroke="#0000ff"/>
<path d="M491.605,267.961h 3.21688e-07" fill="none" stroke="#0000ff"/>
<path d="M491.605,269.586v -3.24888" fill="none" stroke="#0000ff"/>
<path d="M491.605,267.961v -3.13717" fill="none" stroke="#0000ff"/>
<path d="M489.981,264.824h 3.24888" fill="none" stroke="#0000ff"/>
<path d="M491.605,267.961v 3.13717" fill="none" stroke="#0000ff"/>
<path d="M489.981,271.098h 3.24888" fill="none" stroke="#0000ff"/>
<path d="M497.219,269.547h -3.216e-07" fill="none" stroke="#0000ff"/>
<path d="M497.219,271.172v -3.24888" fill="none" stroke="#0000ff"/>
<path d="M497.219,269.547h 3.216e-07" fill="none" stroke="#0000ff"/>
<path d="M497.219,271.172v -3.24888" fill="none" stroke="#0000ff"/>
<path d="M497.219,269.547v -3.11032" fill="none" stroke="#0000ff"/>
<path d="M495.594,266.437h 3.24888" fill="none" stroke="#0000ff"/>
<path d="M497.219,269.547v 3.11032" fill="none" stroke="#0000ff"/>
<path d="M495.594,272.658h 3.24888" fill="none" stroke="#0000ff"/>
<path d="M502.831,258.972h -3.21511e-07" fill="none" stroke="#0000ff"/>
<path d="M502.831,260.596v -3.24888" fill="none" stroke="#0000ff"/>
<path d="M502.831,258.972h 3.21511e-07" fill="none" stroke="#0000ff"/>
<path d="M502.831,260.596v -3.24888" fill="none" stroke="#0000ff"/>
<path d="M502.831,258.972v -3.28519" fill="none" stroke="#0000ff"/>
<path d="M501.206,255.687h 3.24888" fill="none" stroke="#0000ff"/>
<path d="M502.831,258.972v 3.28519" fill="none" stroke="#0000ff"/>
<path d="M501.206,262.257h 3.24888" fill="none" stroke="#0000ff"/>
<path d="M508.442,266.375h -3.21421e-07" fill="none" stroke="#0000ff"/>
<path d="M508.442,267.999v -3.24888" fill="none" stroke="#0000ff"/>
<path d="M508.442,266.375h 3.21422e-07" fill="none" stroke="#0000ff"/>
<path d="M508.442,267.999v -3.24888" fill="none" stroke="#0000ff"/>
<path d="M508.442,266.375v -3.1638" fill="none" stroke="#0000ff"/>
<path d="M506.817,263.211h 3.24888" fill="none" stroke="#0000ff"/>
<path d="M508.442,266.375v 3.1638" fill="none" stroke="#0000ff"/>
<path d="M506.817,269.539h 3.24888" fill="none" stroke="#0000ff"/>
<g stroke="black" stroke-width="1" fill="none">
<line x1="134.563" y1="138.412" x2="135.563" y2="138.412"/>
<line x1="140.24" y1="159.034" x2="141.24" y2="159.034"/>
<line x1="145.916" y1="221.958" x2="146.916" y2="221.958"/>
<line x1="151.592" y1="251.04" x2="152.592" y2="251.04"/>
<line x1="157.268" y1="286.997" x2="158.268" y2="286.997"/>
<line x1="162.943" y1="307.619" x2="163.943" y2="307.619"/>
<line x1="168.617" y1="320.309" x2="169.617" y2="320.309"/>
<line x1="174.291" y1="334.586" x2="175.291" y2="334.586"/>
<line x1="179.964" y1="336.172" x2="180.964" y2="336.172"/>
<line x1="185.637" y1="337.759" x2="186.637" y2="337.759"/>
<line x1="191.309" y1="341.46" x2="192.309" y2="341.46"/>
<line x1="196.981" y1="343.575" x2="197.981" y2="343.575"/>
<line x1="202.651" y1="343.047" x2="203.651" y2="343.047"/>
<line x1="208.321" y1="343.575" x2="209.321" y2="343.575"/>
<line x1="213.991" y1="345.69" x2="214.991" y2="345.69"/>
<line x1="219.66" y1="343.575" x2="220.66" y2="343.575"/>
<line x1="225.328" y1="345.162" x2="226.328" y2="345.162"/>
<line x1="230.995" y1="340.931" x2="231.995" y2="340.931"/>
<line x1="236.662" y1="343.047" x2="237.662" y2="343.047"/>
<line x1="242.327" y1="339.874" x2="243.327" y2="339.874"/>
<line x1="247.992" y1="333.529" x2="248.992" y2="333.529"/>
<line x1="253.657" y1="333.529" x2="254.657" y2="333.529"/>
<line x1="259.32" y1="327.183" x2="260.32" y2="327.183"/>
<line x1="264.982" y1="325.597" x2="265.982" y2="325.597"/>
<line x1="270.644" y1="321.896" x2="271.644" y2="321.896"/>
<line x1="276.305" y1="319.781" x2="277.305" y2="319.781"/>
<line x1="281.965" y1="315.55" x2="282.965" y2="315.55"/>
<line x1="287.624" y1="316.079" x2="288.624" y2="316.079"/>
<line x1="293.282" y1="318.723" x2="294.282" y2="318.723"/>
<line x1="298.939" y1="317.137" x2="299.939" y2="317.137"/>
<line x1="304.595" y1="316.079" x2="305.595" y2="316.079"/>
<line x1="310.251" y1="309.205" x2="311.251" y2="309.205"/>
<line x1="315.905" y1="308.148" x2="316.905" y2="308.148"/>
<line x1="321.558" y1="299.159" x2="322.558" y2="299.159"/>
<line x1="327.21" y1="301.274" x2="328.21" y2="301.274"/>
<line x1="332.862" y1="294.928" x2="333.862" y2="294.928"/>
<line x1="338.512" y1="289.641" x2="339.512" y2="289.641"/>
<line x1="344.161" y1="284.882" x2="345.161" y2="284.882"/>
<line x1="349.809" y1="283.824" x2="350.809" y2="283.824"/>
<line x1="355.456" y1="262.145" x2="356.456" y2="262.145"/>
<line x1="361.101" y1="262.145" x2="362.101" y2="262.145"/>
<line x1="366.746" y1="253.156" x2="367.746" y2="253.156"/>
<line x1="372.389" y1="218.257" x2="373.389" y2="218.257"/>
<line x1="378.032" y1="195.52" x2="379.032" y2="195.52"/>
<line x1="383.673" y1="173.311" x2="384.673" y2="173.311"/>
<line x1="389.313" y1="170.667" x2="390.313" y2="170.667"/>
<line x1="394.951" y1="147.93" x2="395.951" y2="147.93"/>
<line x1="400.589" y1="66.4995" x2="401.589" y2="66.4995"/>
<line x1="406.225" y1="123.078" x2="407.225" y2="123.078"/>
<line x1="411.86" y1="263.731" x2="412.86" y2="263.731"/>
<line x1="417.493" y1="278.536" x2="418.493" y2="278.536"/>
<line x1="423.126" y1="269.547" x2="424.126" y2="269.547"/>
<line x1="428.757" y1="277.479" x2="429.757" y2="277.479"/>
<line x1="434.386" y1="280.123" x2="435.386" y2="280.123"/>
<line x1="440.015" y1="272.72" x2="441.015" y2="272.72"/>
<line x1="445.641" y1="266.904" x2="446.641" y2="266.904"/>
<line x1="451.267" y1="271.134" x2="452.267" y2="271.134"/>
<line x1="456.891" y1="267.961" x2="457.891" y2="267.961"/>
<line x1="462.514" y1="265.317" x2="463.514" y2="265.317"/>
<line x1="468.135" y1="270.076" x2="469.135" y2="270.076"/>
<line x1="473.755" y1="271.662" x2="474.755" y2="271.662"/>
<line x1="479.373" y1="267.432" x2="480.373" y2="267.432"/>
<line x1="484.99" y1="272.191" x2="485.99" y2="272.191"/>
<line x1="490.605" y1="267.961" x2="491.605" y2="267.961"/>
<line x1="496.219" y1="269.547" x2="497.219" y2="269.547"/>
<line x1="501.831" y1="258.972" x2="502.831" y2="258.972"/>
<line x1="507.442" y1="266.375" x2="508.442" y2="266.375"/>
</g>
<path d="M231.39,344.144l 0.583276, -0.306657l 0.583276, -0.306657l 0.583276, -0.306657l 0.583276, -0.306657l 0.583276, -0.306657l 0.583276, -0.306657l 0.583276, -0.306657l 0.583276, -0.306657l 0.583276, -0.306657l 0.583276, -0.306657l 0.583276,
 -0.306657l 0.583276, -0.306657l 0.583276, -0.306657l 0.583276, -0.306657l 0.583276, -0.306657l 0.583276, -0.306657l 0.583276, -0.306657l 0.583276, -0.306657l 0.583276, -0.306657l 0.583276, -0.306657l 0.583276, -0.306657l 0.583276, -0.306657l
 0.583276, -0.306657l 0.583276, -0.306657l 0.583276, -0.306657l 0.583276, -0.306657l 0.583276, -0.306657l 0.583276, -0.306657l 0.583276, -0.306657l 0.583276, -0.306657l 0.583276, -0.306657l 0.583276, -0.306657l 0.583276, -0.306657l 0.583276,
 -0.306657l 0.583276, -0.306657l 0.583276, -0.306657l 0.583276, -0.306657l 0.583276, -0.306657l 0.583276, -0.306657l 0.583276, -0.306657l 0.583276, -0.306657l 0.583276, -0.306657l 0.583276, -0.306657l 0.583276, -0.306657l 0.583276, -0.306657l
 0.583276, -0.306657l 0.583276, -0.306657l 0.583276, -0.306657l 0.583276, -0.306657" fill="none" stroke="#ff0000" stroke-width="5"/>
<path d="M259.97,329.118l 0.583276, -0.306657l 0.583276, -0.306657l 0.583276, -0.306657l 0.583276, -0.306657l 0.583276, -0.306657l 0.583276, -0.306657l 0.583276, -0.306657l 0.583276, -0.306657l 0.583276, -0.306657l 0.583276, -0.306657l 0.583276,
 -0.306657l 0.583276, -0.306657l 0.583276, -0.306657l 0.583276, -0.306657l 0.583276, -0.306657l 0.583276, -0.306657l 0.583276, -0.306657l 0.583276, -0.306657l 0.583276, -0.306657l 0.583276, -0.306657l 0.583276, -0.306657l 0.583276, -0.306657l
 0.583276, -0.306657l 0.583276, -0.306657l 0.583276, -0.306657l 0.583276, -0.306657l 0.583276, -0.306657l 0.583276, -0.306657l 0.583276, -0.306657l 0.583276, -0.306657l 0.583276, -0.306657l 0.583276, -0.306657l 0.583276, -0.306657l 0.583276,
 -0.306657l 0.583276, -0.306657l 0.583276, -0.306657l 0.583276, -0.306657l 0.583276, -0.306657l 0.583276, -0.306657l 0.583276, -0.306657l 0.583276, -0.306657l 0.583276, -0.306657l 0.583276, -0.306657l 0.583276, -0.306657l 0.583276, -0.306657l
 0.583276, -0.306657l 0.583276, -0.306657l 0.583276, -0.306657l 0.583276, -0.306657" fill="none" stroke="#ff0000" stroke-width="5"/>
<path d="M288.551,314.092l 0.583276, -0.306657" fill="none" stroke="#ff0000" stroke-width="5"/>
<rect x="351.996" y="25.0773" width="204.094" height="77.1608" fill="white"/>
<path d="M351.996,102.238h 204.094" fill="none" stroke="black"/>
<path d="M556.091,102.238v -77.1608" fill="none" stroke="black"/>
<path d="M556.091,25.0773h -204.094" fill="none" stroke="black"/>
<path d="M351.996,25.0773v 77.1608" fill="none" stroke="black"/>
<text xml:space="preserve" x="377.37" y="38.9865" fill="black" font-size="16.7816" font-family="Helvetica"> / ndf </text>
<text xml:space="preserve" x="370.872" y="34.1132" fill="black" font-size="11.3544" font-family="Helvetica">2</text>
<text xml:space="preserve" x="361.938" y="38.9865" fill="black" font-size="16.7816" font-family="Times">&#0967;</text>
<text xml:space="preserve" x="478.085" y="40.611" fill="black" font-size="16.7816" font-family="Helvetica"> 12.33 / 9</text>
<text xml:space="preserve" x="361.938" y="60.1042" fill="black" font-size="16.7816" font-family="Helvetica">Prob  </text>
<text xml:space="preserve" x="491.893" y="60.1042" fill="black" font-size="16.7816" font-family="Helvetica"> 0.1955</text>
<text xml:space="preserve" x="361.938" y="77.9731" fill="black" font-size="16.7816" font-family="Helvetica">p0       </text>
<text xml:space="preserve" x="500.827" y="79.5975" fill="black" font-size="16.7816" font-family="Helvetica"> 332.3</text>
<text xml:space="preserve" x="491.893" y="79.5975" fill="black" font-size="16.7816" font-family="Times">&#0177;</text>
<text xml:space="preserve" x="441.535" y="79.5975" fill="black" font-size="16.7816" font-family="Helvetica">  5799 </text>
<text xml:space="preserve" x="361.938" y="97.4663" fill="black" font-size="16.7816" font-family="Helvetica">p1       </text>
<text xml:space="preserve" x="500.827" y="99.0908" fill="black" font-size="16.7816" font-family="Helvetica"> 15.67</text>
<text xml:space="preserve" x="491.893" y="99.0908" fill="black" font-size="16.7816" font-family="Times">&#0177;</text>
<text xml:space="preserve" x="445.596" y="99.0908" fill="black" font-size="16.7816" font-family="Helvetica">217.7 </text>
<text xml:space="preserve" x="436.662" y="99.0908" fill="black" font-size="16.7816" font-family="Times">&#8722;</text>
<text xml:space="preserve" x="430.976" y="99.0908" fill="black" font-size="16.7816" font-family="Helvetica"> </text>
<rect x="351.996" y="25.0773" width="204.094" height="77.1608" fill="white"/>
<path d="M351.996,102.238h 204.094" fill="none" stroke="black"/>
<path d="M556.091,102.238v -77.1608" fill="none" stroke="black"/>
<path d="M556.091,25.0773h -204.094" fill="none" stroke="black"/>
<path d="M351.996,25.0773v 77.1608" fill="none" stroke="black"/>
<text xml:space="preserve" x="377.37" y="38.9865" fill="black" font-size="16.7816" font-family="Helvetica"> / ndf </text>
<text xml:space="preserve" x="370.872" y="34.1132" fill="black" font-size="11.3544" font-family="Helvetica">2</text>
<text xml:space="preserve" x="361.938" y="38.9865" fill="black" font-size="16.7816" font-family="Times">&#0967;</text>
<text xml:space="preserve" x="478.085" y="40.611" fill="black" font-size="16.7816" font-family="Helvetica"> 12.33 / 9</text>
<text xml:space="preserve" x="361.938" y="60.1042" fill="black" font-size="16.7816" font-family="Helvetica">Prob  </text>
<text xml:space="preserve" x="491.893" y="60.1042" fill="black" font-size="16.7816" font-family="Helvetica"> 0.1955</text>
<text xml:space="preserve" x="361.938" y="77.9731" fill="black" font-size="16.7816" font-family="Helvetica">p0       </text>
<text xml:space="preserve" x="500.827" y="79.5975" fill="black" font-size="16.7816" font-family="Helvetica"> 332.3</text>
<text xml:space="preserve" x="491.893" y="79.5975" fill="black" font-size="16.7816" font-family="Times">&#0177;</text>
<text xml:space="preserve" x="441.535" y="79.5975" fill="black" font-size="16.7816" font-family="Helvetica">  5799 </text>
<text xml:space="preserve" x="361.938" y="97.4663" fill="black" font-size="16.7816" font-family="Helvetica">p1       </text>
<text xml:space="preserve" x="500.827" y="99.0908" fill="black" font-size="16.7816" font-family="Helvetica"> 15.67</text>
<text xml:space="preserve" x="491.893" y="99.0908" fill="black" font-size="16.7816" font-family="Times">&#0177;</text>
<text xml:space="preserve" x="445.596" y="99.0908" fill="black" font-size="16.7816" font-family="Helvetica">217.7 </text>
<text xml:space="preserve" x="436.662" y="99.0908" fill="black" font-size="16.7816" font-family="Times">&#8722;</text>
<text xml:space="preserve" x="430.976" y="99.0908" fill="black" font-size="16.7816" font-family="Helvetica"> </text>
<path d="M225.532,347.224l 1.43871, -0.756401" fill="none" stroke="#ff0000" stroke-width="5"/>
<path d="M226.971,346.467l 2.97137, -1.56219l 2.97137, -1.56219l 2.97137, -1.56219l 2.97137, -1.56219l 2.97137, -1.56219l 2.97137, -1.56219l 2.97137, -1.56219l 2.97137, -1.56219l 2.97137, -1.56219l 2.97137, -1.56219l 2.97137, -1.56219l 2.97137,
 -1.56219l 2.97137, -1.56219l 2.97137, -1.56219l 2.97137, -1.56219l 2.97137, -1.56219l 2.97137, -1.56219l 2.97137, -1.56219l 2.97137, -1.56219l 2.97137, -1.56219l 2.97137, -1.56219l 2.97137, -1.56219l 2.97137, -1.56219l 2.97137, -1.56219l 2.97137,
 -1.56219l 2.97137, -1.56219l 2.97137, -1.56219l 2.97137, -1.56219l 2.97137, -1.56219l 2.97137, -1.56219l 2.97137, -1.56219l 2.97137, -1.56219l 2.97137, -1.56219l 2.97137, -1.56219l 2.97137, -1.56219l 2.97137, -1.56219l 2.97137, -1.56219l 2.97137,
 -1.56219l 2.97137, -1.56219l 2.97137, -1.56219l 2.97137, -1.56219l 2.97137, -1.56219l 2.97137, -1.56219l 2.97137, -1.56219l 2.97137, -1.56219l 2.97137, -1.56219l 2.97137, -1.56219l 2.97137, -1.56219" fill="none" stroke="#ff0000" stroke-width="5"/>
<path d="M369.596,271.482l 2.97137, -1.56219l 2.97137, -1.56219l 2.97137, -1.56219l 2.97137, -1.56219l 2.97137, -1.56219l 2.97137, -1.56219l 2.97137, -1.56219l 2.97137, -1.56219l 2.97137, -1.56219l 2.97137, -1.56219l 2.97137, -1.56219l 2.97137,
 -1.56219l 2.97137, -1.56219l 2.97137, -1.56219l 2.97137, -1.56219l 2.97137, -1.56219l 2.97137, -1.56219l 2.97137, -1.56219l 2.97137, -1.56219l 2.97137, -1.56219l 2.97137, -1.56219l 2.97137, -1.56219l 2.97137, -1.56219l 2.97137, -1.56219l 2.97137,
 -1.56219l 2.97137, -1.56219l 2.97137, -1.56219l 2.97137, -1.56219l 2.97137, -1.56219l 2.97137, -1.56219l 2.97137, -1.56219l 2.97137, -1.56219l 2.97137, -1.56219l 2.97137, -1.56219l 2.97137, -1.56219l 2.97137, -1.56219l 2.97137, -1.56219l 2.97137,
 -1.56219l 2.97137, -1.56219l 2.97137, -1.56219l 2.97137, -1.56219l 2.97137, -1.56219l 2.97137, -1.56219l 2.97137, -1.56219l 2.97137, -1.56219l 2.97137, -1.56219l 2.97137, -1.56219" fill="none" stroke="#ff0000" stroke-width="5"/>
<text xml:space="preserve" x="191.372" y="18.681" fill="black" font-size="17.0471" font-family="Helvetica">Calibration Data at 30kV</text></svg>
